<?xml version="1.0" encoding="utf-8"?>
<!-- Generator: Adobe Illustrator 17.0.0, SVG Export Plug-In . SVG Version: 6.00 Build 0)  -->
<!DOCTYPE svg PUBLIC "-//W3C//DTD SVG 1.1//EN" "http://www.w3.org/Graphics/SVG/1.1/DTD/svg11.dtd">
<svg version="1.1" id="Layer_1" xmlns="http://www.w3.org/2000/svg" xmlns:xlink="http://www.w3.org/1999/xlink" x="0px" y="0px"
	 width="865px" height="564px" viewBox="0 0 865 564" enable-background="new 0 0 865 564" xml:space="preserve">
<rect x="0" y="0" fill="#F6B554" width="866" height="566"/>
<g>
	<path d="M865,166c-2.937,0.568-5.9,1.715-8.807,1.587c-6.521-0.286-13.078-0.848-19.491-2.014
		c-3.357-0.61-6.439-2.735-10.329-4.483c1.432-0.809,2.134-1.205,3.801-2.146c-2.958,0-4.871,0-6.784,0
		c0.008-0.296,0.016-0.591,0.023-0.887c5.035,0,10.071,0,15.106,0c0.002-0.171,0.004-0.342,0.005-0.513
		c-5.497-0.293-10.993-0.585-16.49-0.878c-0.013-0.426-0.025-0.852-0.038-1.278c4.355,0,8.709,0,13.064,0
		c-0.004-0.437-0.008-0.874-0.012-1.311c-4.937,0-9.873,0-14.81,0c-0.001-0.336-0.002-0.673-0.003-1.009c6.948,0,13.895,0,20.843,0
		c0.001-0.21,0.001-0.42,0.002-0.63c-7.311-0.373-14.622-0.745-21.932-1.118c0.007-0.387,0.013-0.774,0.02-1.161
		c5.687,0,11.374,0,17.061,0c0.008-0.469,0.016-0.938,0.024-1.408c-6.226,0-12.452,0-18.678,0c0.002-0.506,0.004-1.012,0.006-1.518
		c4.344,0,8.688,0,13.031,0c0.003-0.3,0.007-0.601,0.01-0.901c-3.911-0.198-7.822-0.397-11.734-0.595
		c-0.003-0.232-0.005-0.465-0.008-0.697c6.609,0,13.218,0,19.827,0c-0.001-0.195-0.002-0.391-0.002-0.586
		c-6.563-0.361-13.127-0.722-19.69-1.083c0.008-0.32,0.017-0.639,0.025-0.959c3.211-0.18,6.422-0.36,9.633-0.54
		c0.01-0.178,0.02-0.357,0.03-0.535c-3.575-0.225-7.15-0.45-10.725-0.675c0.005-0.233,0.011-0.466,0.016-0.699
		c4.914,0,9.828,0,14.742,0c-0.001-0.205-0.001-0.411-0.002-0.616c-4.885-0.217-9.77-0.434-14.656-0.651
		c0.007-0.286,0.015-0.572,0.022-0.858c4.31,0,8.619,0,12.929,0c0.012-0.195,0.024-0.39,0.036-0.585
		c-3.596-0.528-7.192-1.055-11.285-1.656c1.984-0.266,3.51-0.471,5.036-0.676c0.023-0.18,0.046-0.36,0.069-0.54
		c-1.728-0.245-3.456-0.489-5.964-0.844c1.895-0.46,3.08-0.748,4.95-1.203c-1.196-0.644-1.936-1.042-2.958-1.593
		c0.021-2.807,6.355-1.947,4.354-6.706c2.77,0,5.838,0,9.373,0c-4.144-1.181-7.728-2.203-11.312-3.225
		c0.117-0.581,0.235-1.161,0.352-1.742c4.741,0,9.481,0,14.222,0c0.006-0.246,0.012-0.492,0.018-0.739
		c-4.707-0.229-9.414-0.458-14.121-0.687c-0.032-0.354-0.064-0.708-0.095-1.063c3.056-0.233,6.112-0.466,9.168-0.699
		c0.016-0.226,0.033-0.451,0.049-0.677c-2.661-0.169-5.322-0.337-7.984-0.506c-0.008-0.152-0.016-0.303-0.024-0.455
		c2.636-0.13,5.273-0.261,7.909-0.391c0.015-0.128,0.031-0.256,0.046-0.384c-2.241-0.293-4.483-0.586-6.724-0.878
		c0.005-0.246,0.01-0.491,0.015-0.737c3.881,0,7.763,0,11.644,0c0.014-0.146,0.028-0.291,0.042-0.437
		c-2.913-0.572-5.826-1.144-9.776-1.921c2.8-0.398,4.61-0.655,6.276-0.892c-10.487-2.29-15.227,2.817-13.155,14.01
		c0.319,1.725-0.579,3.86-1.406,5.567c-1.149,2.37-3.087,4.375-4.115,6.781c-2.909,6.804-3.955,7.607-11.4,7.247
		c-1.156-0.056-2.306-0.222-2.631-1.216c-2.032-2.251-4.065-4.503-5.949-6.59c1.401-0.112,3.424-0.274,5.447-0.436
		c0.006-0.231,0.012-0.463,0.018-0.694c-2.067-0.228-4.133-0.456-7.245-0.8c2.749-0.379,4.513-0.622,6.936-0.956
		c-2.517-0.782-4.389-1.363-6.267-1.942c1.809-0.203,3.625-0.409,5.441-0.615c0.002-0.203,0.005-0.406,0.007-0.608
		c-1.916-0.265-3.833-0.529-6.429-0.888c2.254-0.302,3.867-0.519,5.481-0.735c0.011-0.14,0.022-0.28,0.033-0.42
		c-0.967-0.106-1.933-0.286-2.901-0.307c-6.138-0.135-7.798,1.53-5.512,7.365c1.877,4.791-0.401,6.185-3.854,7.635
		c-9.841,4.133-18.729,1.69-28.035-4.289c3.302,0,5.774,0,8.246,0c0.052-0.284,0.104-0.567,0.156-0.851
		c-3.745-1.195-7.49-2.391-11.21-3.578c2.594-0.146,5.305-0.299,8.195-0.461c-0.313-0.42-0.483-0.807-0.605-0.792
		c-5.057,0.612-7.416-4.55-13.241-5.525c2.654-0.283,3.837-0.409,5.021-0.535c-0.001-0.213-0.003-0.427-0.004-0.64
		c-1.549-0.162-3.099-0.325-4.648-0.487c0.001-0.172,0.003-0.344,0.004-0.516c4.084,0,8.169,0,12.253,0
		c-11.786,0.324-20.078-5.12-25.266-15.437c-0.539-1.072,0.299-2.836,0.531-4.514c-0.382-0.394-1.266-1.304-2.15-2.213
		c0.783-0.578,1.567-1.157,2.561-1.891c-0.625-0.242-1.368-0.529-2.112-0.818c0.611-0.211,1.222-0.419,2.055-0.702
		c-1.156-0.9-2.219-1.728-4.36-3.395c3.86-0.264,6.563-0.449,9.265-0.634c0.009-0.09,0.017-0.18,0.026-0.269
		c-2.1-0.203-4.201-0.406-6.301-0.61c-0.009-0.24-0.017-0.481-0.026-0.721c5.779,0,11.557,0,17.335,0
		c0.001-0.409,0.003-0.819,0.004-1.228c-5.837,0-11.674,0-17.511,0c-0.015-0.479-0.031-0.959-0.046-1.438c4.303,0,8.606,0,12.909,0
		c0-0.352,0.001-0.704,0.001-1.056c-3.908-0.201-7.817-0.402-11.725-0.604c0.006-0.224,0.012-0.448,0.018-0.672
		c4.755,0,9.51,0,14.266,0c0.01-0.258,0.019-0.516,0.029-0.774c-4.129-0.224-8.257-0.447-12.386-0.671
		c-0.041-0.354-0.081-0.707-0.122-1.061c3.672,0,7.344,0,11.017,0c0.004-0.414,0.009-0.828,0.013-1.242
		c-3.06-0.156-6.119-0.312-9.179-0.468c-0.002-0.272-0.003-0.544-0.005-0.816c6.709,0,13.417,0,20.126,0
		c0.013-0.262,0.027-0.523,0.04-0.785c-4.642-0.418-9.282-0.85-13.925-1.25c-4.458-0.384-8.535-0.211-10.94,4.665
		c-1.685,3.416-4.244,1.246-5.696-0.206c-3.863-3.866-7.355-8.102-11.746-13.036c3.644-0.281,5.756-0.444,7.867-0.606
		c0.015-0.194,0.029-0.389,0.044-0.583c-3.064-0.181-6.127-0.362-9.191-0.542c0.001-0.241,0.003-0.483,0.004-0.724
		c3.048,0,6.095,0,9.143,0c-0.001-0.127-0.002-0.253-0.002-0.38c-3.501-0.591-7.002-1.182-10.503-1.773
		c0.024-0.257,0.048-0.514,0.072-0.771c2.777,0,5.555,0,8.332,0c0.039-0.323,0.077-0.646,0.116-0.969
		c-3.081-0.479-6.163-0.958-9.244-1.437c0.019-0.173,0.038-0.346,0.057-0.52c2.583-0.164,5.166-0.329,7.749-0.493
		c0.011-0.165,0.022-0.329,0.034-0.494c-1.27-0.17-2.539-0.339-3.809-0.509c-0.016-0.141-0.033-0.282-0.049-0.423
		c2.633-0.124,5.267-0.248,7.9-0.372c0.019-0.273,0.037-0.545,0.056-0.818c-2.754-0.175-5.509-0.349-8.688-0.551
		c0.805-0.903,1.323-1.483,2.118-2.374c-2.378-0.104-4.305-0.188-6.233-0.273c0.002-0.261,0.005-0.523,0.007-0.784
		c4.872,0,9.744,0,14.617,0c0.001-0.36,0.002-0.72,0.002-1.08c-4.98,0-9.961,0-14.941,0c-0.005-0.421-0.01-0.842-0.015-1.263
		c6.558,0,13.116,0,19.674,0c0.011-0.266,0.023-0.531,0.034-0.797c-6.644-0.429-13.288-0.859-19.931-1.288
		c-0.009-0.184-0.018-0.367-0.027-0.551c6.063,0,12.126,0,18.189,0c0.008-0.449,0.017-0.898,0.025-1.347c-6.137,0-12.275,0-18.412,0
		c-0.013-0.5-0.027-1-0.04-1.5c3.904,0,7.808,0,11.712,0c0.018-0.335,0.037-0.671,0.055-1.006c-3.065-0.481-6.13-0.962-9.195-1.444
		c0.003-0.167,0.006-0.335,0.009-0.502c3.192-0.165,6.385-0.33,9.577-0.495c0.016-0.133,0.032-0.267,0.047-0.4
		c-3.047-0.244-6.094-0.488-9.142-0.732c0.005-0.171,0.011-0.343,0.016-0.514c3.643-0.195,7.285-0.391,10.928-0.586
		c0.024-0.196,0.049-0.391,0.073-0.587c-3.359-0.387-6.718-0.773-10.076-1.16c0.003-0.212,0.005-0.424,0.008-0.636
		c5.295,0,10.59,0,15.885,0c0.013-0.29,0.025-0.581,0.038-0.871c-4.206-0.512-8.411-1.024-12.617-1.536
		c0.009-0.156,0.018-0.311,0.027-0.467c3.579-0.252,7.158-0.503,10.737-0.755c-0.001-0.149-0.002-0.297-0.003-0.446
		c-3.222-0.228-6.444-0.455-9.665-0.683c-0.007-0.286-0.013-0.571-0.02-0.857c3.88-0.232,7.76-0.463,11.64-0.695
		c0.002-0.193,0.005-0.386,0.007-0.579c-3.41-0.175-6.82-0.35-10.23-0.524c-0.055-0.271-0.111-0.543-0.166-0.814
		c2.871-0.421,5.742-0.842,9.884-1.45c-2.63-0.388-4.041-0.596-5.693-0.84c3.731-2.955,7.324-5.801,11.431-9.053
		c-2.021-0.754-4.042-1.507-6.32-2.357c2.009-0.235,3.808-0.445,6.689-0.782c-3.183-0.81-5.357-1.363-7.826-1.991
		c2.471-0.202,4.591-0.376,6.712-0.55c0.01-0.28,0.019-0.56,0.029-0.84c-2.357-0.171-4.713-0.342-7.07-0.514
		c-0.008-0.094-0.017-0.188-0.025-0.281c2.937-0.142,5.873-0.283,8.81-0.425c0.016-0.169,0.032-0.338,0.048-0.507
		c-2.971-0.456-5.942-0.913-8.913-1.369c0.04-0.174,0.08-0.349,0.119-0.523c6.588,0,13.177,0,20.564,0
		c-5.344-0.608-9.914-1.127-14.484-1.647c-0.02-0.243-0.041-0.485-0.061-0.728c2.215-0.147,4.43-0.295,7.606-0.506
		c-3.757-0.432-6.522-0.751-9.288-1.069c0.011-0.304,0.022-0.609,0.033-0.913c3.732,0,7.463,0,11.784,0
		c-3.088-0.776-5.627-1.414-8.166-2.052c0.009-0.145,0.019-0.29,0.028-0.436c2.272,0,4.543,0,8.13,0
		c-14.042-3.567-22.458,4.557-19.313,17.343c0.855,3.477,0.689,5.604-2.556,7.738c-3.86,2.539-7.206,5.857-11.157,9.156
		c-1.588-3.941-0.206-11.7-8.107-12.939c0.023-0.03,0.09-0.185,0.207-0.251c0.138-0.078,0.346-0.038,0.478-0.121
		c0.371-0.234,0.718-0.506,2.068-1.48c-3-0.441-5.006-0.736-7.678-1.128c2.455-0.175,4.316-0.308,6.176-0.441
		c0.015-0.169,0.029-0.339,0.044-0.508c-1.225-0.284-2.451-0.568-4.249-0.984c1.3-0.53,2.159-0.881,3.87-1.579
		c-3.381-0.579-5.78-0.99-8.18-1.401c0.017-0.183,0.033-0.366,0.05-0.55c3.312,0,6.623,0,9.935,0c0.02-0.235,0.04-0.471,0.061-0.706
		c-4.689-0.653-9.377-1.305-14.066-1.958c-0.007-0.096-0.015-0.193-0.022-0.289c5.166,0,10.331,0,15.497,0
		c0.014-0.253,0.027-0.506,0.041-0.76c-4.719-0.632-9.439-1.265-14.729-1.974c2.173-0.241,3.842-0.427,5.873-0.652
		c-3.433-0.565-6.474-1.066-9.516-1.566c0.025-0.21,0.049-0.42,0.074-0.63c5.535,0,11.07,0,16.609-0.006
		c-5.588-0.632-11.181-1.257-16.773-1.883c0.002-0.129,0.004-0.258,0.007-0.387c3.293,0,6.586,0,9.88,0
		c0.03-0.212,0.059-0.423,0.089-0.635c-3.662-0.537-7.325-1.074-10.987-1.611c0.032-0.187,0.063-0.374,0.095-0.561
		c6.483,0,12.965,0,19.448,0c0.021-0.175,0.043-0.35,0.064-0.525c-4.391-0.357-8.785-0.683-13.172-1.087
		C696.563,0.593,694.785,0.258,693,0c38.333,0,76.667,0,115,0c1.335,10.979,7.89,17.538,17.88,21.268
		c1.435,0.536,3.609,1.299,3.892,2.367c2.479,9.357,9.029,14.805,17.247,18.63c-1.316,9.623,1.242,15.499,7.198,16.808
		c-3.707-5.322-4.213-7.798-3.491-15.113c0.102-1.032-0.342-2.6-1.096-3.153c-3.434-2.521-7.196-4.605-10.571-7.196
		c-1.343-1.031-1.991-2.967-2.932-4.453c1.19-0.232,2.517-0.49,3.843-0.748c0.04-0.383,0.08-0.766,0.12-1.149
		c-1.939-0.571-3.879-1.141-5.818-1.712c0.038-0.27,0.076-0.539,0.114-0.809c5.237,0,10.474,0,15.711,0
		c-0.006-0.312-0.011-0.624-0.017-0.936c-4.398,0-8.795,0-13.858,0c1.261-0.868,1.812-1.247,2.829-1.947
		c-2.389-0.452-4.075-0.771-5.76-1.091c0.026-0.285,0.051-0.57,0.077-0.854c4.799,0,9.598,0,14.397,0
		c-0.002-0.153-0.004-0.306-0.006-0.46c-4.936-0.271-9.871-0.543-14.807-0.814c0.019-0.367,0.038-0.734,0.057-1.101
		c1.711-0.193,3.423-0.385,6.521-0.734c-2.34-0.694-3.319-0.984-4.298-1.275c0.028-0.21,0.056-0.42,0.085-0.63
		c4.807,0,9.615,0,14.423,0c0.002-0.101,0.005-0.203,0.007-0.304c-3.062-0.299-6.124-0.599-9.186-0.898
		c0.039-0.358,0.078-0.716,0.117-1.074c4.402,0,8.804,0,13.206,0c0.012-0.169,0.024-0.338,0.036-0.507
		c-5.785-0.562-11.569-1.124-17.354-1.687c0.005-0.194,0.01-0.387,0.015-0.581c6.171,0,12.343,0,18.514,0
		c-0.002-0.164-0.004-0.327-0.006-0.491c-5.043-0.373-10.086-0.745-15.13-1.118c0.019-0.413,0.038-0.826,0.057-1.239
		c4.282,0,8.564,0,12.847,0c-3.331-1.016-6.777-0.434-9.92-1.163c-3.916-0.908-6.691,0.41-8.586,3.249
		c-2.316,3.469-3.956,7.39-6.408,12.116c-3.962-2.89-8.068-5.884-12.696-9.259c1.681-0.559,2.436-0.81,4.353-1.448
		c-2.615-2.124-4.708-3.824-6.651-5.402c1.091-0.137,2.557-0.321,3.809-0.478C814.26,3.126,811.63,1.563,809,0
		c18.667,0,37.333,0,56,0C865,55.333,865,110.667,865,166z M746.831,103.841c16.154,21.826,48.528,23.993,69.582,5.601
		c21.779-19.025,22.573-54.159,1.681-74.363c-19.114-18.485-52.277-17.279-68.382,2.488c0.147,0.071,0.342,0.242,0.435,0.198
		c0.743-0.351,1.46-0.757,2.198-1.121c8.874-4.376,18.191-6.431,28.064-4.952c12.193,1.827,20.981,11.154,22.342,23.428
		c0.146,1.313,0.017,2.899,0.705,3.869c3.691,5.206,0.446,8.702-2.789,12.19c-1.187,1.28-2.644,2.31-3.385,2.945
		c2.616,6.462,4.982,12.31,7.066,17.458c-2.822,1.325-7.513,2.241-7.774,3.867c-1.336,8.332-7.379,11.173-13.951,13.22
		C770.571,112.422,758.985,110.483,746.831,103.841z M755.092,75.667c-4.021-6.282-1.442-10.528,3.696-14.037
		c-9.18-2.956-9.18-2.956-12.551-7.821c-0.265,7.278-5.176,8.534-11.044,9.246c5.8,3.451,6.106,8.362,5.106,14.527
		C744.629,72.018,749.348,72.461,755.092,75.667z"/>
	<path d="M748,564c3.637-2.197,7.274-4.394,10.911-6.59c-0.155-0.439-0.309-0.878-0.464-1.317
		c-3.176,0.234-6.352,0.468-10.064,0.741c8.275-5.581,17.35-6.744,26.219-9.193c7.804-2.155,15.846-1.839,23.381-4.438
		c1.066-0.368,1.874-1.485,2.092-1.666c-7.613,0.409-15.518,0.792-23.415,1.302c-1.216,0.079-2.422,0.674-3.585,1.146
		c-1.973,0.801-4.81,2.921-5.67,2.289c-1.714-1.259-2.401-3.979-3.366-6.159c-0.308-0.696-0.158-1.595-0.674-2.399
		c-0.093,1.718-0.186,3.437-0.356,6.598c-3.242-1.103-6.116-1.781-8.708-3.039c-3.241-1.573-5.907-2.222-8.962,0.665
		c-1.354,1.28-3.948,1.25-6.935,2.081c-1.057,2.814-2.571,7.219-4.403,11.489c-0.53,1.235-1.934,2.917-2.998,2.962
		c-5.767,0.247-11.601,0.445-17.302-0.249c-1.685-0.205-3.943-3.188-4.323-5.202c-1.07-5.674-5.282-8.654-10.471-6.341
		c-3.304,1.472-6.249,4.145-9.656,4.875c-3.23,0.692-6.852-0.448-10.584-0.81c-0.531,1.948-0.983,3.608-1.435,5.268
		c-0.228-0.018-0.457-0.035-0.685-0.053c0-5.741,0-11.482,0-17.223c-0.459-0.038-0.919-0.077-1.378-0.115c0,6.121,0,12.241,0,19.104
		c-3.723-0.617-6.237-1.033-8.751-1.45c0.335-0.325,0.67-0.649,1.005-0.974c-1.678-2.911-3.879-5.654-4.889-8.781
		c-1.047-3.243-1.074-6.855-1.195-10.318c-0.018-0.518,1.889-1.104,2.824-1.614c-0.537-2.686-1.079-5.402-1.821-9.114
		c4.259,0.865,7.754,1.574,11.249,2.284l0.01-0.008c-0.386,2.965-0.772,5.93-1.158,8.895c0.703,0.088,1.406,0.176,2.108,0.264
		c0.42-2.604,0.84-5.208,1.067-6.619c3.684-1.179,7.287-1.469,9.776-3.286c8.312-6.068,16.034-3.684,23.355,1.246
		c2.567,1.729,3.934,5.237,5.625,7.617c3.42-1.939,6.308-3.577,9.179-5.209c-2.735,2.478-5.452,4.951-8.358,7.595
		c2.391,2.206,3.937,3.633,6.282,5.797c-2.969,2.059-5.478,3.799-8.586,5.955c1.567,0.669,3.176,1.793,4.897,2.005
		c4.079,0.504,8.225,0.861,12.317,0.677c1.575-0.071,4.285-1.67,4.376-2.749c0.238-2.838-0.634-5.78-1.154-8.664
		c-0.275-1.529-1.292-3.138-1.012-4.516c0.889-4.385-2.296-7.785-6.842-6.91c5.215-5.75,5.5,2.561,7.404,2.697
		c5.229-2.156,9.457-4.489,13.98-5.512c2.212-0.5,5.056,1.256,7.465,2.325c2.396,1.063,4.543,2.679,6.928,3.775
		c0.952,0.438,3.048,0.531,3.262,0.102c2.306-4.621,5.001-2.192,8.204-1.171c2.304,0.734,5.221-0.24,7.821-0.701
		c5.199-0.921,10.385-1.937,15.539-3.082c1.446-0.321,2.763-1.228,4.177-2.481c-6.573,0.936-8.263-4.918-11.616-7.956
		c-4.832-4.377-7.627-4.514-11.185,0.856c-0.739,1.115-1.818,2.005-3.571,2.473c0.521-2.169,1.042-4.337,1.564-6.506
		c-0.207-0.149-0.415-0.297-0.622-0.446c-1.623,2.302-3.246,4.604-4.869,6.906c-0.683-0.498-1.365-0.997-2.048-1.495
		c0.799-2.065,1.599-4.13,2.918-7.539c-3.569,3.284-6.158,5.668-8.748,8.052c-0.407-0.364-0.814-0.729-1.221-1.093
		c1.388-2.014,2.776-4.028,4.163-6.042c-0.184-0.171-0.368-0.342-0.552-0.513c-2.794,2.132-5.587,4.263-8.381,6.395
		c-0.522-0.597-1.044-1.193-1.566-1.79c2.949-3.11,5.899-6.221,9.244-9.749c0.318,0.546-0.111-0.19-0.766-1.315
		c2.302-0.22,4.234-0.548,6.167-0.556c3.488-0.015,7.088-0.345,10.436,0.392c3.885,0.855,7.913,2.146,11.231,4.263
		c6.701,4.275,12.964,9.236,19.408,13.914c0.338-0.489,0.676-0.978,1.014-1.468c-1.785-1.223-3.69-2.308-5.304-3.725
		c-0.83-0.729-1.363-1.993-1.644-3.112c-0.806-3.211-1.552-5.826-5.802-6.487c-2.541-0.395-4.523-3.733-7.128-4.52
		c-3.706-1.119-7.778-1.644-11.65-1.47c-8.202,0.37-16.906-1.05-23.292,6.709c-1.861,2.261-5.635,2.948-8.667,4.421
		c0-1.253,0-2.643,0-4.57c-2.212,0.455-4.119,0.798-6.001,1.246c-3.14,0.748-4.361-1.25-3.678-3.553
		c1.97-6.64,3.794-13.576,11.171-16.669l-0.146,0.133c8.689-0.21,17.379-0.419,26.068-0.629c0.666-3.971,0.806-5.618-1.252-8.46
		c-3.543-4.893-8.208-10.17-5.764-17.685c1.021-3.138,0.17-6.885,0.17-11.112c-1.152,0.965-2.925,1.724-3.02,2.655
		c-0.44,4.304-0.295,8.664-0.596,12.987c-0.192,2.766-0.794,5.504-1.212,8.254c-0.306,0.327-0.613,0.654-0.919,0.982
		c-0.955-1.236-1.91-2.471-2.28-2.95c-0.935-4.399-2.923-8.355-2.207-11.739c0.921-4.356-0.235-7.973-1.079-11.87
		c2.279-2.382,4.558-4.763,6.837-7.145c1.78-2.157,4.452-4.053,5.173-6.52c2.197-7.511,5.74-9.694,13.357-7.392
		c1.634,0.494,3.963,1.102,5.124,0.349c7.006-4.542,14.66-5.038,22.873-4.368c-0.822,0.593-1.496,1.079-2.202,1.589
		c3.645,3.437,3.02,5.75-1.45,8.056c1.614,1.672,3.604,3.278,4.984,5.301c1.216,1.784,1.75,4.033,2.669,6.283
		c-0.77,0.233-2.046,0.619-3.659,1.107c7.555,3.486,10.969,9.341,8.077,12.998c1.758,1.389,3.518,2.779,5.277,4.169
		c-0.131,0.783-0.261,1.565-0.392,2.348c-2.7,1.267-5.332,2.72-8.116,3.762c-5.215,1.952-10.486,2.762-15.994,0.672
		c-0.725-0.275-2.426,1.718-3.497,2.832c-0.359,0.374-0.183,1.279-0.222,1.942c-0.772,13.103-0.771,13.104,11.985,16.067
		c10.302,2.394,14.034,8.625,11.237,18.868c-0.957,3.504-2.05,6.971-3.081,10.455c0.503,0.234,1.006,0.468,1.51,0.702
		c3.562-7.066,7.123-14.132,10.685-21.197c-0.345-0.243-0.69-0.485-1.035-0.728c-0.926,0.776-1.851,1.552-3.924,3.29
		c0.382-2.873,0.603-4.534,0.964-7.25c-2.347-1.034-5.775-2.545-10.408-4.587c3.834,0,6.502,0.057,9.167-0.016
		c2.66-0.073,5.316-0.278,7.999-1.019c-3.408,0-6.815,0-11.03,0c1.207-0.789,1.759-1.149,2.401-1.57c-4.527,0-8.962,0-13.396,0
		c7.112-1.025,14.222-2.05,21.332-3.076c-8.109,0.726-16.225,0.694-24.341,0.769c-0.898,0.008-1.79,0.622-2.685,0.956
		c-1.139-1.98-2.278-3.961-3.825-6.649c3.327-0.167,5.421-0.272,8.823-0.442c-2.377-1.208-3.675-1.868-6.66-3.385
		c3.41-1.018,5.62-1.612,7.787-2.337c4.993-1.67,10.115-3.066,14.903-5.203c5.13-2.29,10.294-4.827,14.76-8.169
		c2.887-2.16,5.632-4.653,6.568-9.285c1.52-7.514,5.765-13.915,14.623-15.207c-1.383-0.255-2.766-0.51-4.149-0.765
		c-0.448-0.544-0.895-1.089-1.343-1.633c1.102-1.259,2.203-2.518,3.305-3.777c0.496,0.398,0.992,0.795,1.489,1.193
		c-1.831,0-3.662,0-5.493,0c-0.2-0.356-0.401-0.713-0.601-1.069c3.858-1.78,7.715-3.56,11.573-5.339c0,45.667,0,91.333,0,137
		C826,564,787,564,748,564z M698.404,537.648c0-2.045,0-3.414,0-5.208c1.576,0,2.945,0,5.449,0
		c-6.303-2.191-21.879,3.245-26.388,8.951c2.685-0.353,4.959-0.073,6.565-0.979c3.865-2.18,7.417-4.915,11.356-7.605
		C696.555,534.683,697.303,535.883,698.404,537.648z"/>
	<path d="M56.052,496.043c1.296-0.248,2.599-0.467,3.888-0.748c16.125-3.517,13.113-2.047,12.142-17.565
		c-0.203-3.25-1.984-4.491-4.518-3.203c-6.472,3.291-12.303-0.525-18.36-1.286c-1.566-0.197-2.853-2.613-4.635-4.373
		c2.209-1.581,3.713-2.658,5.528-3.957c-1.355-0.612-2.626-1.186-5.09-2.298c3.258-3.071,5.869-6.259,9.186-8.301
		c1.333-0.821,4.215,0.874,6.583,0.961c-3.061-1.427-7.438-1.224-7.514-5.837c-0.017-1.062,2.3-2.162,3.457-3.169
		c-0.242-0.428-1.408-1.821-1.157-2.159c1.618-2.174,3.546-4.118,5.359-6.122c-0.396-0.357-2.349-1.345-2.919-2.855
		c-0.55-1.456,0.33-3.451,0.647-5.669c-0.18-0.09-0.947-0.475-1.983-0.995c0.712-0.091,1.152-0.182,1.595-0.199
		c7.55-0.284,14.952-0.065,21.646,4.301c1.111,0.725,3.217,0.461,4.678,0.027c8.884-2.634,11.687-0.956,14.32,7.664
		c0.692,2.265,3.451,3.899,5.262,5.823c1.057,0.395,2.114,0.789,3.171,1.184c2.566,3.698,3.204,7.234,2.039,12.034
		c-1.314,5.412-0.303,11.389-0.303,16.702c-1.608,0.609-2.743,1.039-5.05,1.913c-0.134-3.04-0.179-5.794-0.394-8.534
		c-0.324-4.136-0.647-8.281-1.272-12.376c-0.107-0.705-1.715-1.18-2.873-1.917c0.306,5.257,1.568,10.274,0.606,14.82
		c-1.076,5.09-3.379,10.45-6.754,14.274c-1.412,1.599-7.161,0.121-10.555-1.06c-2.057-0.716-3.38-3.543-5.075-5.47
		c-0.718,5.878,2.247,7.69,13.717,8.318c1.149,7.032,7.191,6.305,12.11,6.967c3.41,0.459,6.961-0.259,10.444-0.196
		c10.324,0.184,15.796,6.752,14.575,17.103c-3.421,0.153-6.798,0.303-10.182,0.46c-0.534,0.038-1.062,0.07-1.583,0.104
		c0.007,0.001,0.079-0.333,0.079-0.333l-0.201,0.195c0.594-0.041,1.187-0.081,1.781-0.122c0.192,0.395,0.384,0.79,0.573,1.188
		c-0.337,0.389-0.671,0.776-1.005,1.162l0.177,0.191c-2.451-0.635-5.065-0.931-7.305-2.006c-2.057-0.987-3.711-2.815-5.542-4.272
		c-0.466-0.447-0.94-1.289-1.398-1.281c-6.357,0.111-12.731,0.718-19.063,0.419c-5.215-0.246-10.029-0.029-14.213,3.44
		c-0.099-0.59-0.198-1.181-0.298-1.771c-0.123,0.162-0.245,0.325-0.368,0.487c-0.086-0.234-0.171-0.468-0.257-0.703
		c0.202,0.071,0.404,0.141,0.607,0.213c0.134,0.553,0.266,1.105,0.399,1.658c-1.905,0.967-3.809,1.935-5.998,3.047
		c0.475,1.16,1.079,2.634,1.631,3.982c-3.087,2.734-6.107,5.408-9.128,8.083c0.399,0.51,0.799,1.021,1.198,1.531
		c6.244-4.504,12.727-8.72,18.651-13.612c4.113-3.397,8.316-5.023,13.608-4.772c4.77,0.227,9.569-0.164,14.356-0.282
		c-0.186,1.021-0.372,2.041-0.557,3.062c0.271-0.404,0.543-0.808,0.814-1.212c2.835,3.333,5.67,6.665,8.505,9.998
		c-0.394,0.505-0.787,1.009-1.181,1.514c-2.92-2.091-5.84-4.182-8.76-6.273c-0.159,0.196-0.318,0.392-0.477,0.588
		c1.392,1.94,2.783,3.88,4.175,5.819c-0.332,0.375-0.665,0.751-0.997,1.126c-2.589-2.303-5.179-4.606-7.768-6.909
		c-0.208,0.13-0.417,0.26-0.625,0.391c0.86,1.979,1.721,3.958,2.581,5.937c-0.305,0.293-0.609,0.586-0.914,0.879
		c-2.117-1.982-4.233-3.963-6.88-6.441c0.685,2.842,1.225,5.084,1.765,7.326c-0.311,0.171-0.623,0.343-0.934,0.514
		c-1.046-1.357-2.199-2.647-3.118-4.085c-2.279-3.566-5.76-4.141-9.026-1.388c-0.127,0.107-0.299,0.171-0.398,0.296
		c-4.394,5.492-9.379,10.027-16.9,10.473c9.022,1.684,18.038,3.404,27.072,5.02c1.607,0.288,3.432,0.593,4.915,0.125
		c6.528-2.06,6.496-2.162,8.638,4.165l-0.093-0.155c-0.001,1.659,0.415,3.466-0.108,4.941c-0.677,1.909-1.757,4.436-3.31,5.042
		c-1.333,0.52-3.577-1.279-5.413-2.063c-1.143-0.488-2.243-1.32-3.42-1.442c-7.218-0.75-14.452-1.364-21.686-1.95
		c-0.672-0.054-1.385,0.403-2.079,0.623c-0.027,0.548-0.054,1.096-0.081,1.644c7.787,0.992,15.574,1.984,23.939,3.049
		c-1.831,0.401-3.188,0.699-4.546,0.996c11.065,0.488,21.657,2.299,31.885,9.179c-4.088,0-7.124,0-9.733,0
		c2.147,2.055,4.398,4.209,6.649,6.363c-39,0-78,0-117,0c0-45.333,0-90.667,0-136c4.82,0.859,9.64,1.718,14.461,2.577
		c-0.081,0.419-0.161,0.838-0.242,1.257c-3.303-0.59-6.607-1.18-9.91-1.77c-0.059,0.255-0.117,0.511-0.176,0.766
		c2.948,0.944,5.896,1.889,8.844,2.833c0.053,0.318,0.105,0.635,0.158,0.953c-1.845,0.277-3.691,0.555-5.536,0.832
		c0.514-0.568,1.028-1.136,1.542-1.704c1.372,1.578,2.744,3.157,4.116,4.735c-0.503,0.607-1.007,1.215-1.51,1.822
		c-1.534,0-3.068,0-4.602,0c-0.078,0.191-0.155,0.382-0.232,0.574c1.515,0.425,3.182,0.596,4.481,1.378
		c0.674,0.406,0.697,1.893,1.039,2.971c1.661,0.837,5.568,1.541,6.94,3.79c2.165,3.549,2.627,8.137,4.014,12.999
		c12.729,4.791,23.356,17.025,40.893,16.123c-1.085,2.247-1.896,3.928-2.674,5.539c1.331,0,3.484,0,5.816,0
		c0.158,1.752,0.296,3.281,0.506,5.599c-10.788,0-21.306,0-31.824,0c-0.004,0.134-0.007,0.269-0.01,0.404
		c9.159,0.65,18.319,1.301,27.478,1.951c-0.003,0.442-0.005,0.885-0.008,1.327c-5.898-0.351-11.796-0.703-17.694-1.054
		c-0.031,0.283-0.062,0.566-0.093,0.849c1.591,0.215,3.181,0.43,4.772,0.645c-0.007,0.152-0.014,0.304-0.021,0.456
		c-4.372-0.223-8.744-0.447-13.117-0.67c-0.017,0.347-0.034,0.694-0.051,1.041c4.357,0.258,8.722,0.435,13.069,0.81
		c1.92,0.165,3.805,0.729,5.704,1.11c-4.433,0.883-8.864,1.768-12.548,2.504c0.804,2.804,1.322,4.612,1.841,6.421
		c-0.451,0.176-0.902,0.352-1.353,0.528c-0.7-0.852-1.401-1.704-2.357-2.868c-1.049,1.416-1.857,2.509-2.371,3.203
		c5.517,3.929,7.323,9.957,9.595,15.85c-1.273,0.319-2.052,0.515-2.831,0.71c-0.011,0.45-0.021,0.899-0.032,1.349
		c2.149,0.385,4.299,0.77,6.903,1.236C50.283,514.442,43.12,504.037,56.052,496.043z M84.617,553.117
		c0.019,0.265,0.039,0.53,0.058,0.795c6.296-0.482,12.591-0.965,18.886-1.447c-0.017-0.236-0.035-0.473-0.052-0.709
		C97.212,552.21,90.915,552.664,84.617,553.117z"/>
	<path d="M120,0c-1.787,0.979-3.574,1.958-4.72,2.586c3.486,0.226,7.869,0.509,12.363,0.8c0,2.067,0,3.787,0,6
		c1.028,0.233,2.486,0.564,3.944,0.894c-0.035,0.262-0.07,0.523-0.105,0.785c-2.754,0-5.508,0-9.007,0
		c4.351,2.146,9.833-1.656,12.346,4.416c-1.428,0.346-2.666,0.646-4.128,1c1.438,0.261,2.669,0.484,3.899,0.707
		c-0.014,0.247-0.028,0.494-0.042,0.741c-3.358,0-6.716,0-10.073,0c-0.007,0.298-0.014,0.597-0.021,0.895c2.205,0,4.411,0,6.616,0
		c0.029,0.27,0.057,0.539,0.085,0.809c-1.343,0.255-2.686,0.509-3.985,0.756c2.247,0.58,4.58,1.053,6.806,1.834
		c0.683,0.24,1.069,1.322,1.592,2.019c-0.648,0.447-1.295,0.893-1.944,1.341c0.961,0.105,2.121,0.231,3.28,0.357
		c0.013,0.242,0.026,0.483,0.04,0.725c-1.329,0.237-2.658,0.474-4.476,0.798c1.597,0.677,2.853,1.208,4.748,2.012
		c-1.568,0.363-2.623,0.607-4.332,1.002c1.227,0.397,1.818,0.588,3.007,0.973c-1.452,0.319-2.421,0.531-4.639,1.017
		c2.407,0.374,3.588,0.558,5.878,0.914c-2.59,1.463-4.317,2.438-5.928,3.348c2.873,0.535,5.929,1.103,10.48,1.95
		c-3.896,0.263-6.297,0.425-8.698,0.587c0.003,0.163,0.006,0.327,0.008,0.49c3.025,0.273,6.05,0.546,9.075,0.819
		c-0.007,0.323-0.014,0.645-0.021,0.968c-2.477,0-4.953,0-7.43,0c-0.02,0.358-0.039,0.717-0.059,1.075
		c2.876,0.277,5.753,0.554,8.629,0.83c-0.004,0.084-0.009,0.168-0.013,0.252c-3.317,0.162-6.635,0.324-10.022,0.49
		c2.161,1.469,4.258,2.894,6.652,4.521c-1.46,0.282-2.564,0.496-4.273,0.827c2.138,0.323,3.68,0.556,5.223,0.789
		c-0.005,0.173-0.01,0.346-0.016,0.519c-3.228,0.145-6.455,0.29-10.989,0.494c6.178,0.891,11.053,1.594,15.454,2.229
		c-2.454,0.13-5.405,0.286-9.034,0.478c1.048,0.723,1.599,1.104,2.561,1.767c-1.708,0.278-3.086,0.502-5.368,0.874
		c4.901,0.681,8.915,1.238,12.929,1.795c-0.004,0.144-0.009,0.288-0.013,0.432c-3.301,0-6.602,0-9.903,0
		c-0.017,0.165-0.034,0.33-0.052,0.495c3.07,0.565,6.14,1.13,9.209,1.694c-0.041,0.308-0.082,0.615-0.124,0.923
		c-3.914-0.225-7.828-0.451-11.742-0.676c-0.059,0.291-0.118,0.582-0.177,0.873c2.12,0.411,4.24,0.822,6.459,1.253
		c-0.516,0.362-0.974,0.684-1.626,1.142c1.97,0.579,3.802,1.118,6.108,1.796c-2.343,0.308-4.138,0.544-5.932,0.78
		c-0.009,0.181-0.018,0.361-0.026,0.542c1.54,0.277,3.08,0.555,4.588,0.827c-1.051,0.148-2.164,0.304-3.277,0.46
		c-0.235,0.274-0.469,0.548-0.704,0.822c0.718,0.196,1.436,0.392,3.29,0.898c-2.502,0.804-3.637,1.168-5.684,1.825
		c2.257,0.389,3.618,0.623,5.181,0.892c-0.527,0.22-0.807,0.421-1.102,0.447c-3.537,0.312-6.086,1.723-7.361,5.375
		c-0.254,0.729-2.627,0.718-4.879,1.252c5.259,1.171,4.481,4.805,3.755,7.773c-0.445,1.819-2.473,3.25-3.674,4.715
		c-0.229-0.043,0.695,0.131,2.234,0.421c-1.5,0.34-2.455,0.556-3.79,0.858c0.867,0.5,1.401,0.809,2.441,1.409
		c-2.18,0.277-3.913,0.497-6.265,0.795c1.643,0.38,2.713,0.627,3.984,0.921c-0.641,0.366-1.157,0.66-2.021,1.153
		c1.555,0.563,2.875,1.041,5.809,2.103c-4.445,1.315-7.523,2.225-10.508,3.108c1.018,0.779,2.334,1.785,4.002,3.061
		c-2.02,0.153-3.761,0.284-5.503,0.416c-0.011,0.145-0.023,0.291-0.034,0.436c1.417,0.25,2.835,0.5,4.252,0.75
		c0.011,0.245,0.021,0.489,0.032,0.734c-1.722,0-3.444,0-5.291,0c0.155,0.354,0.176,0.545,0.271,0.596
		c0.422,0.223,0.865,0.406,1.3,0.603c-2.172,2.32-4.211,4.793-6.589,6.877c-0.83,0.727-2.499,0.496-3.99,0.735
		c-0.366-2.293-0.695-4.353-1.023-6.413c-0.359-0.136-0.717-0.271-1.076-0.407c-1.092,2.246-2.185,4.492-3.245,6.672
		c0.002,0,0.76,0.187,1.707,0.419c-2.119,1.287-3.941,2.394-5.564,3.379c0.717,0.215,1.855,0.557,3.051,0.915
		c-4.656,6.382-11.54,10.504-19.289,7.777c-2.14-0.753-6.416-0.006-7.453,1.555c-2.826,4.25-5.519,2.713-8.864,1.353
		c0.61-2.039,1.161-3.879,1.865-6.231c-1.935-0.343-3.478-0.618-5.021-0.892c-0.032,0.138-0.064,0.275-0.097,0.413
		c1.009,0.283,2.017,0.565,3.026,0.848c0.066,0.566,0.133,1.131,0.199,1.697c-3.353,0.51-6.706,1.019-10.478,1.592
		c2.407,0.479,4.456,0.886,7.235,1.439c-5.538,1.067-5.472,1.087-6.973,5.963c-0.222,0.72-1.333,1.495-2.147,1.651
		c-5.433,1.041-10.875,2.175-16.369,2.67c-1.32,0.119-3.691-1.793-4.141-3.223c-2.699-8.584-6.637-16.037-15.527-19.359
		c4.5-14.015-0.422-23.679-12.559-22.676c3.678,2.015,6.337,3.472,9.333,5.113c-0.176,2.186-3.364,6.374,3.005,6.392
		c-1.138,0.214-2.277,0.427-4.357,0.817c1.9,0.404,2.812,0.598,4.777,1.017c-2.231,0.46-3.429,0.707-5.643,1.164
		c1.902,0.659,2.977,1.032,4.05,1.403c-0.255,0.459-0.521,0.937-0.787,1.416c0.119,0.499,0.237,0.997,0.356,1.496
		c-2.591,0.126-5.182,0.253-7.773,0.379c-0.002,0.134-0.004,0.267-0.007,0.401c1.769,0.078,3.538,0.156,5.307,0.234
		c0.044,0.226,0.088,0.451,0.131,0.677c-0.919,0.306-1.838,0.612-2.649,0.883c4.201,2.371,8.453,4.771,14.136,7.978
		c-3.265,0.428-5.081,0.667-7.96,1.044c3.687,0.196,6.328,0.336,8.969,0.476c0.051,0.369,0.102,0.738,0.153,1.107
		c-2.447,0.387-4.894,0.773-7.341,1.16c0.011,0.148,0.022,0.296,0.032,0.444c2.798,0.123,5.597,0.247,8.395,0.37
		c0.028,0.133,0.055,0.265,0.083,0.398c-1.619,0.232-3.237,0.464-6.367,0.912c3.493,0.591,5.54,0.937,7.586,1.283
		c-0.004,0.278-0.009,0.556-0.013,0.834c-2.011,0.261-4.021,0.521-7.079,0.918c3.28,0.32,5.539,0.541,7.799,0.761
		c-0.001,0.235-0.003,0.469-0.004,0.704c-2.307,0.25-4.614,0.5-6.921,0.749c0.001,0.27,0.002,0.541,0.003,0.811
		c2.681,0.26,5.362,0.521,8.043,0.781c-0.012,0.25-0.024,0.499-0.036,0.749c-3.436,0-6.872,0-10.307,0
		c-0.017,0.306-0.034,0.613-0.051,0.919c3.441,0.217,6.883,0.434,10.324,0.651c-0.01,0.327-0.02,0.655-0.031,0.982
		c-4.822,0.222-9.643,0.445-14.465,0.667c0.005,0.334,0.011,0.668,0.016,1.002c5.518,0,11.036,0,16.555,0
		c0.006,0.491,0.012,0.981,0.019,1.472c-5.453,0-10.906,0-16.359,0c-0.004,0.42-0.007,0.839-0.011,1.259c5.372,0,10.744,0,16.115,0
		c0.04,0.507,0.08,1.014,0.12,1.521c-5.361,0.282-10.722,0.565-16.083,0.847c-0.001,0.246-0.002,0.491-0.002,0.737
		c5.193,0,10.386,0,15.579,0c0.024,0.461,0.047,0.922,0.071,1.384c-5.579,0.299-11.157,0.598-16.736,0.896
		c0.008,0.303,0.017,0.606,0.025,0.909c5.357,0,10.714,0,16.07,0c-0.001,0.361-0.002,0.722-0.003,1.084
		c-5.912,0.336-11.824,0.672-17.735,1.008c-0.001,0.239-0.001,0.479-0.002,0.718c5.377,0,10.754,0,16.131,0
		c0,0.268-0.001,0.536-0.001,0.804c-7.929,0.447-15.857,0.894-23.786,1.341c0.003,0.27,0.005,0.54,0.007,0.81
		c7.691,0,15.382,0,23.073,0c0.004,0.357,0.007,0.713,0.011,1.07c-7.624,0.371-15.249,0.742-22.873,1.113
		c-0.006,0.291-0.012,0.582-0.018,0.873c7.01,0,14.021,0,21.031,0c-0.002,0.477-0.004,0.953-0.006,1.43c-7.7,0-15.4,0-23.1,0
		c-0.008,0.437-0.016,0.874-0.024,1.311c6.846,0,13.693,0,20.539,0c0.031,0.457,0.063,0.913,0.094,1.37
		c-5.217,0.282-10.435,0.564-15.652,0.846c0.001,0.324,0.002,0.648,0.003,0.971c4.025,0,8.051,0,12.076,0
		c-0.003,0.325-0.007,0.65-0.01,0.976c-3.539,0-7.079,0-10.618,0c-0.032,0.223-0.064,0.447-0.097,0.67
		c1.997,0.436,3.994,0.871,5.991,1.307c-0.047,0.348-0.094,0.696-0.14,1.044c-5.721,0-11.442,0-17.163,0
		C0,114.802,0,57.604,0.004,0.407c0-0.136,0.058-0.271,0.089-0.407C13.061,0,26.031,0,39,0c-1.509,0.549-3.017,1.097-4.23,1.539
		c0.716,0.384,1.629,0.873,2.678,1.435c-2.26,1.097-4.612,1.57-5.811,3.006c-1.234,1.478-1.989,3.732-1.666,5.972
		c-2.827,0.685-5.656,1.368-8.397,2.029c0.345,7.507,1.647,14.688-4.542,20.533c-4.025,3.801-5.97,10.102-12.91,10.757
		c1.878,0.551,3.922,0.862,5.471,0.128c10.273-4.874,15.841-17.029,13.767-28.869c2.28-1.654,4.388-3.183,6.496-4.712
		C35.706,9.891,38.973,5.531,41,0C67.333,0,93.667,0,120,0z M24.815,65.464c-0.478,26.531,20.27,48.36,46.444,48.862
		c25.256,0.484,45.657-20.167,46.034-46.598c0.372-26.083-20.797-48.393-46.253-48.746C45.615,18.63,25.291,39.068,24.815,65.464z"
		/>
	<path d="M0,394c5.794,2.848,11.584,5.706,17.386,8.539c1.782,0.87,3.596,1.674,5.843,2.717c-0.868,0.971-1.54,1.722-3.076,3.441
		c5.064,2.085,9.753,4.016,15.022,6.186c-2.595,0.655-5.022,1.734-7.461,1.761c-2.917,0.032-5.843-0.837-8.94-0.267
		c1.097,0.644,2.193,1.287,3.347,1.964c-1.992,1.66-5.464,2.3-2.855,6.889c-4.741-0.69-8.864-1.291-13.859-2.018
		c4.386,1.826,7.957,3.313,11.529,4.8c-0.215,0.603-0.43,1.206-0.646,1.809C10.861,428.215,5.43,426.607,0,425
		C0,414.667,0,404.333,0,394z"/>
	<path d="M865,424c-3.252,0.641-6.504,1.281-9.756,1.922c-0.17-0.694-0.34-1.388-0.51-2.082c1.648-0.758,3.296-1.516,4.944-2.274
		c-0.017-0.139-0.034-0.277-0.052-0.416c-2.425,0.522-4.982,1.723-7.223,1.289c-1.174-0.227-1.082-3.93-4.423-3.034
		c-0.519,0.139-2.137-3.816-3.598-6.53c-1.985,0.824-4.238,2.532-6.426,2.452c-2.195-0.08-4.325-1.943-6.165-2.866
		c4.805-2.035,10.029-4.246,15.252-6.458c-0.146-0.407-0.292-0.814-0.438-1.22c-1.419,0.402-2.839,0.804-4.258,1.206
		c-0.252-0.425-0.505-0.849-0.757-1.274c7.803-4.239,15.606-8.477,23.41-12.716C865,402.667,865,413.333,865,424z"/>
	<path d="M150,0c3.685,0.55,7.369,1.1,11.693,1.745c-1.307,0.66-2.122,1.072-3.351,1.693c1.216,0.41,2.137,0.721,3.925,1.324
		c-2.026,0.283-3.145,0.439-4.974,0.694c1.604,0.34,2.562,0.544,4.396,0.933c-1.895,2.301-3.332,4.198-4.934,5.943
		c-1.326,1.443-2.82,2.738-4.291,4.041c-1.812,1.606-3.502,3.46-5.569,4.638c-2.092,1.192-4.58,1.69-6.005,2.184
		C136.378,15.078,132.189,7.539,128,0C135.333,0,142.667,0,150,0z"/>
	<path d="M694,564c0.333,0,0.667,0,1,0C694.667,564,694.333,564,694,564z"/>
	<path d="M727.43,224.526c4.842,2.542,9.779,4.926,14.461,7.734c1.236,0.741,2.232,2.727,2.408,4.25
		c1.049,9.079,1.825,18.189,2.772,28.117c7.23-3.719,14.254-6.72,20.597-10.784c5.308-3.402,9.29-2.798,13.551,1.27
		c1.903,1.817,4.204,3.216,6.421,4.878c-0.934,3.8-2.001,6.714-6.898,5.909c-1.17-0.192-3.255,1.583-3.994,2.952
		c-4.899,9.081-9.722,18.215-14.126,27.541c-0.89,1.885-0.685,5.179,0.428,6.922c1.926,3.017,1.736,5.095-1.463,8.039
		c-2.201-1.759-5.318-3.19-6.712-5.612c-2.133-3.706-4.538-5.8-8.852-5.506c-0.638,0.044-1.393-0.1-1.934-0.424
		c-2.134-1.28-5.877-2.557-5.972-4.033c-0.25-3.863,3.717-3.051,6.308-3.808c1.97-0.576,4.461-1.487,5.416-3.047
		c3.867-6.312,7.229-12.933,10.057-20.115c-7.784,3.877-15.567,7.753-24.292,12.099c-1.193-10.875-2.285-20.827-3.377-30.779
		c-0.372-0.117-0.744-0.234-1.116-0.351c-3.699,8.209-7.581,16.344-10.937,24.691c-0.64,1.592,0.888,4.005,1.261,6.067
		c0.373,2.069,0.552,4.173,0.94,7.236c-7.591-3.961-13.657-7.127-20.352-10.621c0.35-0.915,0.959-2.511,1.69-4.422
		c6.282,2.211,9.034-1.096,11.204-6.142c3.746-8.711,7.853-17.268,11.882-25.856c1.541-3.286,1.551-6.132-0.622-9.348
		c-1.042-1.543-0.499-4.157-0.674-6.287C726.146,224.906,726.788,224.716,727.43,224.526z M769.393,264.199
		c-0.399-0.272-0.797-0.545-1.196-0.817c-5.808,10.399-11.616,20.798-17.665,31.63C760.071,286.441,762.565,273.956,769.393,264.199
		z M736.403,241.953c-0.48,0.042-0.961,0.085-1.441,0.127c0.845,10.814,1.69,21.629,2.535,32.443
		c0.516-0.045,1.031-0.09,1.547-0.135C738.163,263.576,737.283,252.765,736.403,241.953z"/>
	<path d="M591.668,296.732c-4.262,6.664-8.874,13.33-12.873,20.345c-2.208,3.873-4.679,2.965-7.916,2.17
		c-3.693-0.906-3.438-3.208-3.239-6.045c0.979-13.95,1.877-27.906,2.654-41.868c0.094-1.696-0.719-3.44-1.099-5.164
		c-0.498-2.253-0.984-4.508-1.475-6.763c0.672-0.39,1.343-0.781,2.015-1.171c2.974,2.358,5.948,4.716,8.272,6.559
		c3.895,0,7.439-0.265,10.9,0.154c1.108,0.134,1.997,2.078,2.987,3.194c-1.138,0.78-2.249,2.171-3.42,2.224
		c-3.439,0.156-5.209,1.45-5.389,5.047c-0.308,6.137-0.845,12.263-0.513,18.838c0.773-1.052,1.612-2.064,2.31-3.164
		c3.924-6.184,7.734-12.442,11.76-18.557c1.297-1.969,1.79-4.984,5.852-3.724c4.059,1.259,5.033,3.404,4.741,7.25
		c-0.727,9.589-1.193,19.198-0.987,29.284c4.339-6.575,8.83-13.059,12.86-19.819c0.633-1.062-0.797-3.38-1.329-5.101
		c-0.534-1.728-1.136-3.434-1.886-5.684c1.768,0,2.354-0.185,2.683,0.028c4.615,2.986,9.338,5.527,15.044,5.9
		c0.867,0.057,2.354,2.389,2.174,3.43c-0.182,1.055-2.31,2.759-3.181,2.543c-4.449-1.102-6.409,1.581-8.393,4.64
		c-7.244,11.17-14.508,22.327-21.816,33.456c-1.428,2.174-2.545,4.49-6.261,3.058c-3.512-1.353-4.787-2.967-4.594-6.85
		C591.946,312.988,591.668,304.998,591.668,296.732z M575.123,269.374c-0.52-0.064-1.04-0.128-1.561-0.192
		c-1.126,15.029-2.251,30.058-3.377,45.088c0.462,0.033,0.925,0.067,1.387,0.1C572.757,299.371,573.94,284.372,575.123,269.374z
		 M598.386,281.445c-0.426-0.02-0.851-0.039-1.277-0.059c-0.658,13.682-1.317,27.364-1.975,41.046
		c0.48,0.022,0.959,0.044,1.439,0.066C597.177,308.814,597.781,295.129,598.386,281.445z"/>
	<path d="M280.261,322.621c5.691,2.557,6.126,2.305,10.233-5.817c4.163,1.846,5.839,5.224,5.453,9.437
		c-0.394,4.296-3.22,6.843-7.405,7.656c-6.364,1.237-11.242-1.824-15.73-5.746c-18.668,6.407-36.215-4.923-38.652-24.909
		c-1.789-14.675,1.861-23.408,12.169-29.109c12.636-6.989,26.216-3.421,33.624,9.038
		C287.617,296.061,288.471,309.153,280.261,322.621z M271.129,317.305c0.457-1.526,0.974-2.428,0.956-3.32
		c-0.226-11.355-2.399-22.144-9.418-31.479c-2.586-3.44-5.761-5.801-10.247-4.392c-4.491,1.411-5.114,5.602-5.126,9.37
		c-0.04,12.225,3.908,23.221,11.441,32.844c1.974,2.522,4.621,3.969,8.351,2.815c-2.161-2.877-4.007-5.334-6.079-8.091
		c1.657-1.32,2.893-2.304,4.257-3.391c1.054,1.153,1.785,2.04,2.609,2.831C268.77,315.353,269.753,316.124,271.129,317.305z
		 M274.862,316.033c3.703-11.476-2.775-34.485-11.059-37.163C271.623,289.713,275.36,301.662,274.862,316.033z M237.716,288.411
		c-3.107,13.391,2.929,29.105,12.716,34.288C242.068,312.891,236.841,301.803,237.716,288.411z"/>
	<path d="M630.032,220.814c-9.884,4.669-11.844,13.2-4.793,19.913c-0.591,1.548-1.227,3.21-1.781,4.661
		c-0.75,0.144-1.163,0.365-1.367,0.242c-6.004-3.627-11.756-7.842-19.564-5.664c-0.92,0.257-2.513-1.898-3.794-2.935
		c1.115-1.165,2.228-2.331,3.344-3.495c1.95-2.033,4.936-3.748,5.673-6.152c3.114-10.17,5.732-20.505,8.099-30.879
		c0.458-2.007-1.042-4.452-1.601-6.704c-0.359-1.448-0.649-2.914-0.971-4.371c1.323-0.163,2.999-0.929,3.911-0.393
		c6.195,3.64,12.337,7.144,20.333,3.68c0.163,0.735,0.326,1.469,0.489,2.204c-2.811,2.89-6.343,5.38-8.237,8.781
		c-2.019,3.627-2.49,8.116-3.996,13.52c6.049-3.67,10.998-6.559,15.819-9.648c2.195-1.407,3.14-3.265,1.256-5.878
		c-0.576-0.799-0.541-2.758,0.061-3.478c0.552-0.659,2.354-0.735,3.417-0.425c4.83,1.41,9.627,2.954,14.371,4.631
		c4.414,1.561,2.276,4.208,0.851,6.946c-6.789-2.087-11.123,3.007-16.23,5.808c-0.867,0.475-1.389,2.566-1.217,3.79
		c1.323,9.388,2.674,18.782,4.451,28.091c0.463,2.423,2.65,4.472,3.689,6.848c0.623,1.425,0.558,3.151,0.802,4.742
		c-1.317,0.165-2.631,0.385-3.954,0.466c-0.462,0.028-1.022-0.179-1.408-0.458c-5.159-3.722-10.384-6.986-17.286-6.069
		c-1.081,0.144-3.339-1.943-3.471-3.168c-0.129-1.2,1.797-2.593,2.759-3.945c0.94-1.322,2.649-2.764,2.55-4.04
		C631.819,232.001,630.853,226.61,630.032,220.814z M610.412,229.986c0.444,0.081,0.889,0.163,1.333,0.244
		c3.145-11.908,6.289-23.815,9.434-35.723c-0.461-0.121-0.922-0.243-1.382-0.364C616.668,206.09,613.54,218.038,610.412,229.986z
		 M635.333,242.006c0.55-0.048,1.1-0.096,1.65-0.143c-0.727-7.441-1.454-14.883-2.181-22.324c-0.488,0.042-0.975,0.083-1.463,0.125
		C634.004,227.11,634.669,234.558,635.333,242.006z"/>
	<path d="M495.311,190.858c-6.103-0.313-11.522-0.591-18.295-0.938c0,5.861-0.302,11.304,0.174,16.678
		c0.154,1.737,2.016,4.035,3.677,4.778c3.508,1.57,3.431,3.515,1.928,6.197c-0.268,0.098-0.436,0.226-0.579,0.202
		c-7.621-1.282-15.19-3.192-23.015-1.052c-0.685,0.187-2.739-1.63-2.684-2.412c0.091-1.288,1.181-3.336,2.21-3.587
		c4.845-1.18,6.153-4.212,6.168-8.821c0.034-10.327,0.381-20.653,0.709-30.977c0.101-3.178-0.906-5.313-3.893-6.829
		c-1.162-0.589-1.605-2.594-2.376-3.954c1.408-0.443,2.809-0.909,4.229-1.308c0.29-0.081,0.692,0.014,0.974,0.16
		c5.158,2.676,10.383,3.283,16.082,1.533c1.511-0.464,3.674,1.197,5.537,1.883c-1.296,1.383-2.382,3.098-3.933,4.078
		c-3.034,1.917-5.87,12.129-3.749,14.852c0.433,0.556,1.393,0.931,2.136,0.977c4.784,0.298,9.575,0.482,14.909,0.729
		c-0.007-6.683,3.166-13.551-5.219-17.308c-0.53-0.238-0.674-2.127-0.408-3.083c0.187-0.673,1.389-1.521,2.114-1.5
		c1.966,0.058,4.465-0.118,5.775,0.974c3.921,3.268,7.625,2.675,11.719,0.72c1.133-0.541,2.645-0.625,3.913-0.439
		c0.955,0.14,2.491,0.995,2.537,1.623c0.08,1.073-0.541,2.925-1.327,3.218c-5.164,1.924-5.382,6.064-5.535,10.6
		c-0.326,9.656-0.842,19.308-1.489,28.948c-0.238,3.553,0.839,5.964,3.838,7.996c1.236,0.838,1.566,3.013,2.308,4.58
		c-1.462,0.28-2.916,0.677-4.391,0.792c-0.784,0.061-1.752-0.158-2.389-0.604c-3.728-2.61-7.526-2.631-11.635-0.918
		c-1.302,0.543-3.041,0.586-4.422,0.235c-1.385-0.352-2.572-1.481-3.846-2.269c0.9-1.131,1.788-2.271,2.702-3.391
		c1.409-1.725,3.763-3.281,4.079-5.181C494.759,202.525,494.859,196.876,495.311,190.858z M496.417,211.796
		c3.354-13.048,3.769-26.605,2.733-40.288C498.239,184.937,497.328,198.366,496.417,211.796z M467.78,206.685
		c0.335-0.018,0.67-0.036,1.005-0.054c0-12.494,0-24.987,0-37.481c-0.335-0.009-0.67-0.018-1.005-0.027
		C467.78,181.644,467.78,194.165,467.78,206.685z"/>
	<path d="M282.204,269.118c0.549-2.959,0.285-5.389,1.374-6.618c2.458-2.774,8.381-2.347,14.009,0.353
		c11.977-10.543,24.677-12.136,31.69-3.976c7.402,8.614,6.703,17.594-1.324,24.121c3.117,2.932,6.561,5.685,9.409,8.957
		c5.233,6.012,6.209,6.065,10.205-0.978c3.37,3.07,3.314,6.671,1.741,10.315c-1.905,4.414-5.641,7.33-10.254,6.124
		c-3.911-1.023-7.665-3.648-10.793-6.365c-2.826-2.453-4.307-6.465-7.151-8.886c-1.955-1.665-5.509-2.92-7.84-2.334
		c-3.598,0.905-2.394,4.387-1.585,7.175c1.252,4.314,1.902,8.914,7.796,9.689c0.918,0.121,2.036,2.491,2.1,3.866
		c0.036,0.768-2.027,2.447-2.942,2.315c-6.382-0.924-11.935,0.262-16.856,4.714c-0.836,0.757-3.154-0.124-4.787-0.248
		c0.321-1.861,0.62-3.725,0.967-5.581c0.396-2.115,1.589-4.404,1.13-6.302c-2.504-10.347-5.498-20.574-8.133-30.89
		C289.909,270.446,288.633,267.042,282.204,269.118z M308.343,284.023c2.574-0.787,4.691-1.238,6.647-2.068
		c6.461-2.743,8.433-10.171,4.24-15.835c-2.266-3.061-5.188-4.761-9.082-3.372c-3.91,1.394-5.327,4.669-4.825,8.377
		C305.896,275.35,307.241,279.472,308.343,284.023z M293.677,267.939c-0.508,0.235-1.017,0.469-1.525,0.704
		c3.452,12.754,6.904,25.508,10.357,38.262c0.46-0.131,0.92-0.261,1.379-0.392C300.484,293.656,297.08,280.797,293.677,267.939z
		 M334.536,303.117c0.418-0.369,0.837-0.739,1.255-1.108c-3.537-4.171-7.075-8.342-10.612-12.514
		c-0.449,0.398-0.899,0.796-1.348,1.194C327.399,294.832,330.967,298.975,334.536,303.117z M324.761,273.622
		c2.108-5.063,0.873-8.771-3.195-10.918C322.531,266.001,323.66,269.86,324.761,273.622z"/>
	<path d="M78.225,381.954c-1.072-1.362-1.983-2.518-3.078-3.909c5.449-6.033,10.701-11.212,19.998-8.051
		c5.308,1.805,11.103,2.144,16.642,3.317c5.499,1.164,10.953,2.546,17.801,4.156c-5.099-6.825-9.21-12.645-13.724-18.133
		c-1.053-1.28-3.447-1.523-5.273-2.085c-1.836-0.565-3.733-0.934-5.604-1.389c-0.014-0.612-0.027-1.223-0.041-1.835
		c5.458-3.764,10.916-7.528,16.629-11.469c2.123,1.786,3.816,3.409,1.664,6.889c-0.843,1.364-0.228,4.526,0.866,6.047
		c7.393,10.275,15.104,20.32,22.684,30.462c1.384,1.852,2.635,3.804,3.924,5.675c-1.778,3.713-4.493,4.053-7.978,3.265
		c-12-2.713-24.042-5.24-36.912-7.038c4.527,5.485,8.864,11.149,13.738,16.306c0.996,1.054,4.013,0.099,6.081,0.276
		c1.117,0.096,2.749,0.32,3.151,1.042c0.474,0.852-0.096,2.31-0.296,3.491c-0.046,0.273-0.386,0.58-0.666,0.716
		c-5.269,2.562-9.848,5.903-12.221,11.77c-0.613-0.095-1.226-0.19-1.84-0.285c-0.386-1.883-0.753-3.77-1.162-5.648
		c-0.508-2.334-0.372-5.181-1.693-6.901c-6.391-8.317-13.097-16.397-19.856-24.423C87.273,379.701,85.046,379.423,78.225,381.954z
		 M99.018,380.262c-0.104,0.434-0.207,0.868-0.311,1.303c14.37,3.378,28.74,6.757,43.109,10.135c0.105-0.441,0.21-0.882,0.315-1.324
		C127.761,387.005,113.39,383.633,99.018,380.262z"/>
	<path d="M104.996,537.774c0.203-0.9,0.317-2.552,0.624-2.589c4.43-0.533,7.434-3.356,10.989-5.673
		c5.837-3.805,11.074,0.812,16.221,3.377c0.664,0.331,1.155,1.01,1.717,1.52c6.275-6.407,6.275-6.407,12.011-2.16
		c-1.091-0.386-2.17-0.812-3.276-1.15c-3.392-1.036-8.438,2.677-7.062,5.616c1.673,3.572-0.826,5.391-1.416,8.035
		c-0.549,2.459-0.448,5.457,0.548,7.692c0.464,1.04,3.718,1.094,5.716,1.133c3.114,0.061,6.269-0.057,9.344-0.515
		c2.015-0.3,3.922-1.334,5.245-1.811c-2.952-2.499-5.2-4.402-7.647-6.473c2.167-2.043,3.582-3.377,5.132-4.839
		c-0.731-1.276-1.379-2.405-2.027-3.535c3.504,1.848,4.907-0.839,6.526-3.035c1.129-1.531,1.902-3.732,3.412-4.505
		c5.935-3.038,11.987-6.444,18.957-2.733l-0.129-0.19c3.968,2.541,7.351,6.896,13.098,3.848c0.472,2.971,0.894,5.623,1.316,8.275
		c0.594-0.026,1.189-0.052,1.783-0.079c0-3.343,0-6.685,0-10.028l-0.093,0.171c3.287-0.389,6.573-0.778,10.61-1.256
		c-0.691,3.238-1.287,6.032-1.945,9.111c0.936,0.184,1.962,0.385,3.203,0.628c-0.73,4.764,1.332,9.981-3.953,13.69
		c-1.279,0.898-0.81,4.288-1.203,6.927c-2.303,0.38-4.702,0.776-7.356,1.213c-0.459-6.589-0.892-12.811-1.325-19.033
		c-0.369,0-0.738-0.001-1.108-0.001c0,5.814,0,11.629,0,17.443c-0.237,0.045-0.475,0.09-0.712,0.134
		c-0.487-1.644-0.974-3.289-1.525-5.149c-2.318,0.117-4.554-0.128-6.583,0.408c-4.155,1.097-7.578-0.084-10.629-2.718
		c-3.684-3.181-7.612-3.057-11.549-0.859c-1.014,0.566-2.007,2.137-2.064,3.292c-0.292,5.944-2.731,8.305-8.648,8.074
		c-2.798-0.109-5.695-0.452-8.389,0.093c-5.849,1.181-8.137-2.958-11.086-10.938c-0.656-1.774-0.669-3.785-0.779-4.46
		c-3.024-0.532-5.726-0.208-7.081-1.406c-3.254-2.879-6.013-2.406-9.434-0.582c-2.438,1.301-5.271,1.862-8.077,2.803
		c-0.626-3.42-1.037-5.665-1.449-7.917C104.902,537.619,104.996,537.774,104.996,537.774z M173.491,534.042
		c3.97,2.734,7.411,5.274,11.039,7.511c1.29,0.796,3.017,0.991,4.578,1.185c0.569,0.07,1.237-0.661,1.86-1.026
		c-0.503-0.683-0.858-1.652-1.533-2.003c-4.358-2.262-8.846-4.275-13.172-6.595c-3.609-1.935-6.884-1.079-10.216,0.852
		c1.434,0,2.868,0,4.511,0c0,1.681,0,3.101,0,5.395C171.633,537.413,172.256,536.284,173.491,534.042z"/>
	<path d="M126.456,229.227c1.139-0.651,2.235-1.767,3.425-1.879c8.273-0.774,14.557-5.484,21.11-9.924
		c2.512-1.702,5.828-2.455,8.893-3.059c11.034-2.176,22.299,6.164,17.8,20.547c7.765,0.278,12.101,4.791,14.207,11.812
		c2.344,7.814-0.485,14.129-6.22,19.244c-5.482,4.889-11.832,7.888-19.465,7.701c-1.301-0.032-2.845,1.023-3.91,1.983
		c-2.508,2.26-4.794,4.766-7.181,7.185c-3.014-2.629-3.73-4.477-1.815-7.467c1.004-1.567,1.091-4.58,0.271-6.316
		c-5.111-10.828-10.424-21.573-16.12-32.101c-0.992-1.834-4.076-2.607-6.28-3.693c-1.687-0.831-3.511-1.383-5.275-2.059
		C126.082,230.542,126.269,229.884,126.456,229.227z M181.62,255.379c-0.013-4.254-3.621-9.92-7.139-11.212
		c-3.858-1.416-11.12,0.622-13.699,3.929c-0.459,0.589-1.023,1.679-0.781,2.144c2.578,4.952,5.172,9.909,8.12,14.641
		c0.55,0.884,2.718,1.168,4.087,1.06C177.232,265.545,181.635,260.454,181.62,255.379z M156.129,243.069
		c2.771-1.922,5.12-3.203,7.041-4.952c4.933-4.494,4.851-10.198-0.068-14.636c-3.514-3.171-7.164-2.734-10.869-0.227
		c-3.636,2.46-3.701,5.371-1.618,8.947C152.511,235.457,154.046,238.923,156.129,243.069z M140.97,232.666
		c-0.525,0.285-1.049,0.57-1.574,0.854c6.038,12.161,12.076,24.323,18.113,36.484c0.516-0.258,1.031-0.516,1.546-0.774
		C153.027,257.042,146.999,244.854,140.97,232.666z M179.011,243.059c1.673,4.172,3.627,9.045,5.361,13.368
		C186.104,249.787,184.305,245.531,179.011,243.059z"/>
	<path d="M110.154,300.869c-0.441,1.831-0.466,4.989-1.389,5.278c-6.189,1.937-10.674,6.107-15.226,10.315
		c-0.693,0.641-1.767,0.869-2.868,1.382c-2.559-2.501-3.949-4.576-0.546-7.754c1.411-1.318,2.175-4.185,1.98-6.227
		c-1.269-13.248-2.936-26.457-4.354-39.691c-0.45-4.204-2.359-5.193-6.019-3.357c-1.329,0.667-2.67,1.311-4.345,2.133
		c-0.937-1.418-1.809-2.737-2.81-4.251c4.815-4.152,9.838-6.524,16.042-6.472c1.486,0.012,3.283-1.255,4.42-2.433
		c3.232-3.349,6.197-6.957,9.243-10.436c3.722,2.907,4.001,4.705,1.581,7.406c-3.332,3.719-2.718,6.7,1.482,9.514
		c10.643,7.13,21.302,14.24,32.076,21.169c1.863,1.198,4.447,1.223,6.46,2.256c1.262,0.647,2.345,2.045,2.933,3.363
		c0.179,0.401-1.578,2.421-2.419,2.402c-7.12-0.16-11.694,3.666-15.404,9.143c-0.431,0.636-1.33,1.272-2.054,1.324
		c-1.408,0.101-2.845-0.212-4.27-0.354c0.249-1.26,0.466-2.528,0.754-3.78c0.503-2.187,2.195-5.431,1.352-6.336
		c-2.106-2.262-4.551-5.521-8.847-2.761c-4.89,3.142-9.938,6.171-15.251,8.481c-4.561,1.983-4.254,5.109-3.001,8.476
		c1.389,3.734,4.312,1.883,6.774,1.18c0.614-0.176,1.205-0.433,1.807-0.653C108.888,300.414,109.521,300.641,110.154,300.869z
		 M97.716,284.3c5.427-2.925,10.169-5.48,15.602-8.408c-6.237-4.151-11.801-7.853-18.325-12.194
		C95.967,271.067,96.784,277.245,97.716,284.3z M129.965,283.23c0.276-0.414,0.553-0.827,0.829-1.241
		c-11.136-7.429-22.271-14.859-33.407-22.288c-0.239,0.361-0.478,0.721-0.717,1.082C107.769,268.265,118.867,275.748,129.965,283.23
		z"/>
	<path d="M190.388,351.933c0.484,17.137-12.799,28.237-28.014,25.065c-17.328-3.612-29.298-22.11-25.436-39.331
		c2.282-10.174,9.453-15.975,18.629-19.047c9-3.013,16.691,0.758,22.947,7.268C185.896,333.569,190.639,342.531,190.388,351.933z
		 M178.372,360.01c-3.23-11.539-8.956-23.117-20.164-31.095c-1.521-1.082-5.516-0.898-6.734,0.325
		c-1.812,1.82-3.164,5.164-2.969,7.727c0.72,9.506,5.86,17.153,11.985,24.056c2.367,2.668,5.232,5.243,8.395,6.779
		C174.526,370.543,178.345,367.738,178.372,360.01z M139.47,339.504c-2.637,13.092,11.289,33.68,25.433,34.741
		C150.196,367.314,142.171,355.852,139.47,339.504z M181.478,360.548c-1.287-13.882-7.494-24.942-18.891-33.028
		C171.805,336.855,178.398,347.695,181.478,360.548z"/>
	<path d="M224.382,342.2c0.331,1.826,1.519,4.599,0.813,5.22c-1.865,1.641-4.791,3.582-6.861,3.178
		c-4.625-0.903-7.132,0.51-8.885,4.535c-0.362,0.831-1.323,1.688-2.187,1.956c-1.995,0.618-4.099,0.883-6.159,1.291
		c0.378-1.854,0.937-3.693,1.087-5.565c0.175-2.173,0.722-4.739-0.157-6.504c-5.193-10.413-10.682-20.682-16.276-30.887
		c-0.745-1.358-2.931-3.179-3.964-2.912c-4.797,1.241-5.134-2.019-6.462-6.214c4.67-0.898,9.028-1.737,14.221-2.736
		c7.163-10.341,16.256-14.236,26.562-10.684c9.3,3.205,15.341,12.277,14.675,22.037c-0.673,9.852-7.686,17.387-18.186,19.539
		C214.013,342.153,216.792,344.147,224.382,342.2z M219.121,315.32c-2.782-4.557-5.077-9.264-8.275-13.245
		c-2.432-3.028-6.223-3.804-9.79-1.2c-3.441,2.512-4.314,6.736-2.251,10.61c1.946,3.654,4.023,7.239,6.047,10.851
		c2.757,4.922,5.525,5.528,9.421,1.431C216.189,321.752,217.159,318.837,219.121,315.32z M213.126,300.016
		c2.703,5.114,5.766,10.911,8.44,15.97C221.836,309.317,218.596,303.286,213.126,300.016z"/>
	<path d="M731.222,393.274c5.7,9.173,15.035,12.443,23.546,8.78c5.14-2.212,5.14-2.212,8.509,3.14
		c-2.084,2.384-4.213,4.898-6.429,7.333c-2.226,2.445-4.538,4.811-7.177,7.597c-1.499-1.4-3.666-2.445-3.881-3.8
		c-0.755-4.748-4.314-5.519-7.821-7.259c-4.063-2.016-7.586-5.199-11.158-8.103c-4.122-3.353-8.042-6.955-12.785-11.09
		c0.519-8.114,0.511-8.15,9.54-10.234c12.643-2.918,25.302-5.768,37.948-8.676c1.081-0.249,2.112-0.718,3.223-1.105
		c-5.402-8.848-11.381-9.979-22.754-4.521c-3.722-3.583-3.722-3.583,8.014-18.338c2.947,1.35,5.777,2.605,2.722,7.297
		c11.453,0.314,17.258,7.319,21.87,16.19c1.624,3.125,4.455,5.622,7.202,8.974C764.797,384.102,748.205,388.635,731.222,393.274z
		 M768.886,373.553c-0.106-0.444-0.211-0.888-0.317-1.332c-15.98,3.646-31.961,7.292-47.941,10.939
		c0.112,0.474,0.224,0.947,0.336,1.421C736.938,380.905,752.912,377.229,768.886,373.553z"/>
	<path d="M687.078,306.133c-0.356,3.021-2.232,3.803-5.302,4.962c-7.368,2.78-14.279,6.801-21.245,10.563
		c-0.684,0.369-0.705,2.423-0.626,3.67c0.361,5.648,0.95,11.282,1.296,16.931c0.284,4.638,1.08,8.951,5.486,11.436
		c-1.867,5.634-4.661,6.249-9.688,1.461c-2.901-2.763-5.094-5.803-9.768-4.497c-0.933,0.261-2.337-0.405-3.259-1.032
		c-1.664-1.132-3.127-2.559-4.675-3.862c1.625-0.974,3.474-1.712,4.814-2.986c1.5-1.426,3.326-3.222,3.593-5.063
		c0.39-2.691-0.482-5.566-0.934-9.347c-3.74,2.088-7.133,3.689-10.127,5.847c-0.805,0.58-0.38,2.851-0.543,4.343
		c-0.178,1.633-0.084,3.406-0.753,4.812c-0.21,0.441-3.29,0.388-3.722-0.289c-3.361-5.276-8.726-6.627-14.455-7.216
		c0.161-4.33,1.348-5.755,5.54-5.197c2.621,0.349,5.753-1.074,8.268-2.423c5.077-2.723,11.916-4.87,14.232-9.257
		c2.222-4.21-0.329-10.958-0.837-16.586c-0.45-4.979-0.64-10.03-5.295-13.457c-0.535-0.394-0.387-2.56,0.189-3.382
		c0.569-0.811,2.503-1.652,3.114-1.282c3.131,1.893,6.028,4.173,9.957,7.002c3.336-1.147,7.898-0.946,11.909,3.123
		c-0.949,2.072-0.55,5.238-4.624,4.131c-0.436-0.119-2.128,1.993-2.117,3.058c0.038,3.458,0.597,6.91,1.042,11.193
		c3.447-1.849,6.555-3.276,9.345-5.171c0.747-0.507,0.763-2.456,0.693-3.719c-0.122-2.19-0.574-4.361-1.029-7.526
		C675.073,300.128,680.997,303.091,687.078,306.133z M647.622,294.126c-0.501,0.051-1.002,0.102-1.503,0.154
		c1.653,15.317,3.306,30.635,4.959,45.952c0.355-0.036,0.711-0.071,1.066-0.107C650.637,324.792,649.13,309.459,647.622,294.126z"/>
	<path d="M362.307,303.062c-2.144,0.849-4.287,1.697-7.062,2.796c-1.27-7.012-2.475-13.02-3.341-19.076
		c-0.147-1.027,0.95-2.937,1.857-3.224c1.023-0.324,2.767,0.404,3.698,1.234c3.211,2.862,5.946,6.32,9.381,8.845
		c1.958,1.439,4.939,2.116,7.433,2.057c4.109-0.099,7.462-4.016,7.391-8.074c-0.073-4.19-2.269-6.998-6.509-7.567
		c-3.445-0.463-6.954-0.499-10.438-0.622c-11.797-0.418-20.207-10.043-17.897-20.856c1.508-7.061,6.543-11.531,13.159-12.951
		c6.139-1.317,12.658-0.865,18.941,0.007c1.324-0.956,2.649-1.912,3.973-2.869c0.896,1.421,2.19,2.734,2.61,4.283
		c1.043,3.849,1.814,7.788,2.405,11.733c0.147,0.98-0.804,2.124-1.25,3.193c-1.08-0.483-2.494-0.688-3.172-1.505
		c-1.473-1.775-2.413-3.986-3.85-5.797c-4.467-5.63-10.521-6.556-16.163-2.02c-1.645,1.323-3.096,4.379-2.732,6.274
		c0.342,1.776,2.984,3.779,5.009,4.404c2.949,0.909,6.248,0.741,9.404,0.913c9.453,0.513,16.068,5.804,17.975,14.456
		c1.935,8.777-1.874,17.115-9.874,21.486C376.606,303.816,369.625,304.099,362.307,303.062z M349.864,261.613
		c0.751,10.252,5.962,14.784,16.979,15.412c7.05,0.402,14.74-0.321,17.566,8.944c-0.813-7.182-4.751-10.392-13.731-10.652
		C360.823,275.031,352.69,272.607,349.864,261.613z"/>
	<path d="M252.419,241.344c0.52-1.701,0.572-3.831,1.657-5.012c2.228-2.425,2.442-4.713,1.515-7.732
		c-3.171-10.328-6.116-20.725-9.139-31.098c-1.077-3.695-2.609-6.798-7.139-7.247c-0.861-0.085-2.125-1.658-2.181-2.605
		c-0.046-0.784,1.283-2.122,2.235-2.39c1.719-0.484,4.035-1.094,5.352-0.341c4.282,2.45,6.445-0.237,9.323-2.608
		c10.791-8.891,26.08-5.826,32.729,6.455c5.172,9.552,8.42,19.686,6.337,30.639c-2.261,11.887-12.313,18.345-24.063,15.721
		c-2.823-0.631-4.4-0.05-6.467,1.876c-2.429,2.264-5.633,3.696-8.501,5.489C253.525,242.108,252.972,241.726,252.419,241.344z
		 M281.287,215.432c-0.868-9.574-3.301-20.728-12.07-29.237c-1.584-1.537-5.562-2.811-6.871-1.917
		c-2.043,1.395-2.975,4.668-3.91,7.31c-0.374,1.057,0.427,2.572,0.804,3.846c2.408,8.134,4.773,16.282,7.303,24.379
		c1.371,4.388,2.27,9.584,8.57,9.269C279.234,228.875,281.245,224.782,281.287,215.432z M259.297,231.517
		c0.5-0.145,1-0.289,1.5-0.434c-3.733-12.787-7.467-25.574-11.201-38.361c-0.479,0.139-0.958,0.277-1.437,0.416
		C251.872,205.931,255.584,218.724,259.297,231.517z M283.706,222.818c3.887-9.919-2.259-30.947-11.763-38.521
		C280.298,196.326,283.994,208.719,283.706,222.818z"/>
	<path d="M681.03,424.141c-0.364,2.799-0.587,5.626-1.115,8.394c-2.461,12.88-11.064,20.714-22.572,20.671
		c-11.701-0.044-21.201-8.09-22.964-20.884c-0.813-5.896-0.486-12.498,1.37-18.102c4.281-12.925,14.344-18.416,27.156-16.3
		c9.69,1.6,17.166,11.525,17.833,23.692c0.045,0.83,0.006,1.665,0.006,2.497C680.839,424.12,680.935,424.13,681.03,424.141z
		 M650.244,424.771c-0.13,0-0.26,0-0.39,0c0,4.658-0.067,9.317,0.018,13.973c0.091,4.995,2.786,8.014,6.965,8.011
		c4.276-0.002,7.461-2.885,7.629-7.586c0.338-9.474,0.474-18.96,0.477-28.441c0.001-4.231-3.22-7.034-7.444-7.039
		c-4.301-0.005-7.112,2.651-7.227,7.109C650.151,415.453,650.244,420.113,650.244,424.771z M640.643,432.059
		c0.385-0.051,0.77-0.102,1.154-0.153c0-5.167,0-10.335,0-15.502c-0.385,0.001-0.77,0.002-1.154,0.004
		C640.643,421.625,640.643,426.842,640.643,432.059z"/>
	<path d="M457.425,406.192c-2.807,0-5.555-0.848-7.106,0.156c-5.017,3.247-5.595,8.609-5.536,13.329
		c5.434-0.212,10.789-1.44,15.643-0.379c7.879,1.723,12.026,9.097,11.15,17.221c-1.03,9.546-7.714,16.68-16.302,17.541
		c-8.256,0.828-14.433-1.985-18.9-9.28c-7.603-12.416-7.279-28.498,1.278-38.891c5.784-7.025,15.749-9.39,24.015-5.7
		c5.137,2.294,7.987,7.745,6.579,12.588c-1.194,4.107-4.736,6.359-8.317,5.286c-3.607-1.081-5.048-4.686-3.575-8.95
		C456.561,408.518,456.788,407.93,457.425,406.192z M445.855,435.817c-0.02,6.513,2.251,10.403,6.041,10.349
		c4.059-0.058,6.539-4.328,6.243-10.752c-0.26-5.626-2.742-9.493-6.119-9.532C448.487,425.841,445.873,430.053,445.855,435.817z"/>
	<path d="M608.11,431.993c-0.883,0.386-1.761,0.785-2.65,1.158c-7.028,2.945-14.302,1.578-18.77-3.522
		c-4.648-5.306-5.581-14.587-1.975-20.565c4.943-8.194,12.447-11.424,21.656-10.111c8.704,1.241,14.555,6.491,16.865,14.983
		c3.066,11.27,2.301,22.223-5.066,31.803c-6.496,8.447-17.29,10.486-26.397,5.079c-2.086-1.239-3.952-3.627-4.851-5.907
		c-1.388-3.52,1.562-7.567,5.241-8.129c3.698-0.565,6.457,1.944,7.006,6.02c0.189,1.403,1.188,3.889,1.655,3.852
		c1.803-0.145,4.563-0.643,5.114-1.853c1.724-3.785,2.605-7.954,3.813-11.974C609.204,432.549,608.657,432.271,608.11,431.993z
		 M609.495,418.16c-0.474-3.104-0.452-6.41-1.601-9.241c-0.732-1.804-3.17-3.971-4.897-4.018c-1.685-0.046-4.659,2.185-4.933,3.783
		c-0.827,4.812-1.116,9.852-0.639,14.708c0.337,3.428,3.49,4.534,6.898,4.056C610.254,426.616,608.986,422.054,609.495,418.16z
		 M617.436,421.44c-0.335-0.028-0.671-0.056-1.006-0.084c-0.118,1.861-0.342,3.722-0.325,5.582c0.017,1.858,0.277,3.714,0.43,5.571
		c0.3-0.007,0.601-0.015,0.901-0.022C617.436,428.805,617.436,425.122,617.436,421.44z"/>
	<path d="M563.874,421.889c1.311,1.049,3.012,1.75,3.558,2.968c1.791,3.995,4.19,8.109,4.471,12.304
		c0.508,7.575-5.677,13.722-14.185,15.659c-10.041,2.287-19.969-1.086-23.857-8.105c-3.909-7.057-2.492-14.224,4.08-20.681
		c0.344-0.338,0.632-0.735,0.427-0.494c-1.422-3.76-3.276-6.97-3.776-10.378c-0.786-5.363,1.381-9.829,6.409-12.449
		c6.265-3.265,12.848-3.638,19.335-1.051C569.288,403.232,570.72,411.329,563.874,421.889z M552.654,446.337
		c4.892-0.002,8.339-3.307,8.299-7.956c-0.033-3.75-5.707-9.375-9.223-9.144c-2.931,0.193-6.852,5.614-6.829,9.443
		C544.93,443.612,547.692,446.339,552.654,446.337z M552.622,403.496c-2.962,0.514-6.457,0.953-6.76,5.319
		c-0.247,3.561,4.444,7.348,8.816,6.892c3.2-0.334,5.537-2.13,5.53-5.794C560.202,406.064,557.197,403.422,552.622,403.496z"/>
	<path d="M342.282,218.242c-7.692,5.403-15.269,8.608-24.245,4.653c-0.792-0.349-2.434,1.121-3.633,1.828
		c-2.114,1.247-4.097,2.773-6.327,3.741c-0.935,0.406-3.057,0.052-3.401-0.605c-0.558-1.066-0.278-2.699-0.03-4.034
		c0.604-3.254,2.326-6.593,1.933-9.687c-1.259-9.902-3.018-19.765-5.173-29.513c-0.55-2.49-2.843-5.534-5.105-6.48
		c-3.143-1.315-3.536-2.93-3.13-6.095c1.611-0.185,3.418-0.951,4.752-0.451c5.816,2.181,10.598,0.734,15.855-2.298
		c3.168-1.828,7.709-1.478,11.656-1.682c2.675-0.138,5.612,1.54,7.454-1.972c0.209-0.399,2.453-0.395,2.613-0.05
		c1.339,2.89,2.757,5.83,3.42,8.912c0.346,1.609-0.778,3.534-1.109,4.815c-4.549-2.294-7.965-4.813-11.772-5.765
		c-7.024-1.756-12.084,3.379-10.937,10.431c0.476,2.927,1.146,5.822,1.753,8.858c4.771,0.347,6.449-2.049,6.92-6.1
		c0.418-3.594,0.573-3.576,5.333-3.744c0.475,6.07-2.44,13.06,5.224,17.552c-0.587,0.523-1.174,1.046-1.761,1.568
		c-1.574-0.303-3.195-0.461-4.709-0.95c-1.517-0.489-2.88-1.727-4.394-1.897c-3.505-0.394-6.055,0.507-4.649,4.995
		c0.494,1.578,0.646,3.263,0.944,4.901c0.724,3.988,2.236,7.417,6.619,8.482c4.359,1.059,8.039-0.504,10.623-3.9
		c1.654-2.174,3.152-4.855,3.568-7.491c0.573-3.632,1.997-5.022,6.407-4.113c0.651,5.56,1.58,11.41,1.923,17.295
		c0.173,2.974-2.055,3.01-4.087,1.681C343.892,220.525,343.293,219.426,342.282,218.242z M310.57,218.465
		c0.41-0.076,0.819-0.152,1.229-0.228c-0.981-12.699-3.134-25.209-6.299-37.556c-0.399,0.063-0.797,0.126-1.196,0.189
		C306.393,193.402,308.481,205.933,310.57,218.465z"/>
	<path d="M428.541,182.734c6.889,2.655,13.772,5.486,20.957,0.229c0.36,0.498,0.721,0.996,1.081,1.494
		c-0.592,1.931-1.117,3.885-1.791,5.787c-1.006,2.842-2.786,5.588-3.039,8.479c-0.489,5.596-0.143,11.266-0.143,18.009
		c-3.737-0.559-7.02-1.049-10.303-1.54c-19.141,5.242-33.363-4.635-34.505-25.269c-0.443-7.994,0.402-15.579,5.52-22.258
		c5.363-6.999,12.312-9.814,20.971-9.028c3.655,0.332,7.13,2.862,11.139,0.565c0.681-0.39,3.591,1.786,4.44,3.339
		c1.158,2.118,1.466,4.755,1.874,7.213c0.319,1.92,1.846,4.758-1.653,5.054c-1.28,0.108-3.253-1.543-4.014-2.895
		c-2.567-4.56-5.982-7.635-11.406-7.621c-5.442,0.014-9.274,2.762-10.866,7.923c-3.243,10.515-2.711,21.094,0.682,31.449
		c1.51,4.607,6.392,7.237,10.673,6.422c5.214-0.992,6.229-4.964,6.271-9.412c0.044-4.61,0.825-9.469-5.297-11.552
		c-1.104-0.376-1.313-3.384-1.934-5.176C427.647,183.542,428.094,183.138,428.541,182.734z M410.453,207.352
		c-5.871-10.899-5.708-22.531-4.275-34.325C402.419,185.079,402.286,196.709,410.453,207.352z M437.763,191.653
		c-0.205-0.01-0.41-0.02-0.614-0.031c0,6.062,0,12.125,0,18.187c0.205-0.02,0.41-0.041,0.614-0.061
		C437.763,203.717,437.763,197.685,437.763,191.653z"/>
	<path d="M696.454,380.491c-3.027-3.233-6.054-6.466-9.939-10.616c-3.476,0.682-8.297-0.243-11.718-4.399
		c-0.657-0.798,0.568-3.146,1.038-5.294c5.932,3.3,8.206-0.084,10.815-4.034c3.81-5.768,5.841-11.648,5.073-18.688
		c-0.63-5.771-0.282-11.644-0.498-17.467c-0.054-1.444-0.733-2.855-0.917-4.307c-0.308-2.424-0.448-4.87-0.659-7.306
		c0.852-0.36,1.703-0.719,2.555-1.079c3.066,3.556,6.132,7.113,9.249,10.728c2.669,0.517,6.025,0.943,9.21,1.924
		c0.912,0.281,1.329,2.17,1.973,3.321c-1.231,0.622-2.508,1.167-3.679,1.886c-1.286,0.79-3.477,1.676-3.537,2.63
		c-0.343,5.406-0.166,10.846-0.166,17.254c5.087-2.397,9.27-4.302,13.392-6.331c3.057-1.506,1.995-3.416,0.74-5.742
		c-0.74-1.371-0.343-3.355-0.458-5.063c1.593,0.234,3.943-0.119,4.653,0.798c4.099,5.292,9.308,8.462,15.589,10.719
		c4.817,1.731,2.456,5.122,0.012,8.375c-7.199-6.599-14.37-3.82-21.551,0.112c-2.039,1.117-4.133,2.277-6.348,2.906
		c-8.205,2.332-10.709,9.47-13.488,16.15c-0.738,1.773,0.604,4.37,0.841,6.604c0.212,1.995,0.216,4.011,0.312,6.018
		C698.117,379.891,697.285,380.191,696.454,380.491z M685.492,362.61c0.473,0.335,0.946,0.669,1.419,1.004
		c2.986-5.323,7.738-10.388,8.566-16.028c1.422-9.678,0.393-19.716,0.393-29.603c-0.573,0.003-1.147,0.007-1.72,0.01
		c0,7.264-0.654,14.602,0.162,21.772C695.391,349.252,690.266,355.738,685.492,362.61z"/>
	<path d="M389.417,407.737c0,5.128,0,9.046,0,13.243c3.003-0.885,5.937-2.026,8.978-2.593c9.033-1.683,15.844,1.747,18.857,9.229
		c3.251,8.074,0.756,17.754-6.131,22.327c-7.291,4.841-15.208,5.645-23.347,2.288c-5.02-2.071-8.142-6.719-7.047-11.373
		c0.531-2.257,2.482-4.712,4.488-5.9c1.302-0.772,4.823-0.071,5.638,1.13c1.257,1.854,1.962,5.015,1.261,7.06
		c-1.281,3.735,0.505,4.591,3.254,5.027c4.92,0.779,7.822-1.941,9.737-6.079c2.527-5.461,1.683-11.253-2.12-14.183
		c-3.816-2.94-7.445-1.673-11.105,0.511c-2.032,1.212-3.126,4.325-6.744,2.42c-3.674-1.935-4.717-4.508-4.622-8.354
		c0.184-7.447,0.054-14.902,0.054-22.361c1.71-0.202,2.802-0.685,3.29-0.333c4.583,3.31,8.89,0.244,13.356-0.222
		c3.038-0.318,6.216,0.474,9.306,0.939c3.071,0.462,6.11,1.136,9.868,1.851c2.299,5.098,0.072,10.476-6.347,11.207
		c-3.702,0.421-7.706-0.98-11.45-2.014C395.681,410.753,392.964,409.248,389.417,407.737z"/>
	<path d="M343.617,438.913c-4.853,0-9.827,0.251-14.75-0.137c-1.706-0.135-4.068-1.504-4.719-2.947
		c-0.764-1.692-0.768-4.618,0.244-6.074c6.175-8.88,12.872-17.397,19.091-26.249c2.281-3.247,4.737-4.738,8.704-4.097
		c2.612,0.422,5.36,0.041,7.954,0.522c1.053,0.196,2.5,1.667,2.594,2.668c0.092,0.982-1.201,2.203-2.076,3.141
		c-1.093,1.172-3.376,2.122-3.423,3.239c-0.311,7.44-0.161,14.899-0.161,24.157c2.406-2.123,4.437-3.074,4.982-4.568
		c1.198-3.281,3.164-3.266,5.043-2.753c0,6.236,0,12.053,0,18.16c-2.353,1.067-4.415,0.968-5.713-2.528
		c-0.456-1.229-2.374-1.914-4.201-3.279c-0.861,4.817-0.173,7.558,3.47,9.438c1.149,0.593,1.525,2.684,2.255,4.09
		c-1.376,0.529-2.749,1.065-4.13,1.579c-0.14,0.052-0.349,0.019-0.49-0.05c-5.403-2.632-10.687-1.519-16.077,0.208
		c-1.232,0.395-2.895-0.553-4.36-0.883c0.776-1.404,1.203-3.404,2.393-4.102C343.894,446.309,344.765,443.428,343.617,438.913z
		 M331.409,431.519c4.875,0,8.707,0,12.767,0c0-5.515,0-10.673,0-16.839C339.699,420.584,335.847,425.665,331.409,431.519z"/>
	<path d="M483.807,244.514c2.327-0.14,2.741-0.299,2.973-0.158c4.686,2.842,9.457,4.273,14.922,1.969
		c0.78-0.329,2.413,1.363,3.651,2.119c-0.894,1.163-1.618,3.108-2.713,3.346c-3.532,0.767-4.334,3.096-4.753,6.125
		c-1.234,8.908-2.535,17.808-3.905,26.696c-1.729,11.226-10.202,17.825-21.387,16.763c-10.579-1.005-18.387-10.044-17.911-20.971
		c0.362-8.32,0.992-16.629,1.438-24.946c0.182-3.393,0.086-6.551-3.685-8.52c-1.146-0.599-1.327-3.044-1.95-4.644
		c0.504-0.526,1.007-1.052,1.511-1.578c4.004,1.708,8.008,3.416,12.19,5.2c3.119-1.035,7.061-2.344,11.374-3.775
		c0.932,3.746,1.104,5.59-2.492,6.504c-1.559,0.397-3.516,2.815-3.691,4.483c-1.078,10.268-1.837,20.576-2.414,30.886
		c-0.306,5.475,3.589,9.605,8.924,10.167c5.145,0.542,9.711-2.904,10.52-8.424c1.352-9.228,2.364-18.504,3.627-27.746
		c0.453-3.313-0.418-5.636-3.306-7.654C485.356,249.395,484.984,247.001,483.807,244.514z M460.069,250.474
		c-0.27,12.452-4.041,24.847-1.397,37.216c0.466-0.001,0.932-0.001,1.397-0.002C460.069,275.283,460.069,262.878,460.069,250.474z"
		/>
	<path d="M261.677,438.109c2.538,1.706,2.457,5.441,1.187,8.556c-1,2.453-3.524,4.449-5.745,6.164
		c-0.985,0.76-3.032,0.774-4.358,0.361c-8.625-2.685-17.168-3.668-25.429,0.972c-2.993-7.758-0.019-18.737,6.619-24.512
		c3.621-3.15,7.845-5.595,11.609-8.594c4.609-3.672,5.638-9.726,2.706-14.272c-2.067-3.205-5.741-4.059-8.583-1.799
		c-1.871,1.488-2.952,2.919-1.442,5.872c1.134,2.217,1.021,5.712,0.09,8.104c-0.556,1.43-4.261,3.024-5.663,2.434
		c-2.602-1.095-5.524-3.354-6.5-5.84c-0.94-2.394-0.268-5.999,0.891-8.524c2.825-6.156,11.815-9.64,19.867-8.356
		c7.361,1.174,12.772,6.4,14.07,13.589c1.401,7.754-2.627,14.677-10.965,18.699c-3.59,1.732-7.287,3.246-10.845,5.039
		c-1.527,0.769-2.822,1.998-3.982,2.842c6.26,0.996,12.214,2.36,18.226,2.695C255.851,441.673,258.397,439.552,261.677,438.109z"/>
	<path d="M521.731,252.203c3.432-0.423,7.28-1.123,11.144-1.224c1.023-0.027,2.094,1.788,3.144,2.757
		c-0.991,0.985-1.865,2.63-2.997,2.832c-3.376,0.604-5.383,2.391-5.022,5.675c1.097,9.988,2.519,19.94,4.008,31.398
		c5.915-9.689,11.229-17.9,15.898-26.464c0.91-1.67-0.641-4.717-1.142-7.111c-0.366-1.747-0.873-3.464-1.317-5.195
		c1.701,0.139,3.799-0.303,5.025,0.534c2.983,2.035,5.824,2.318,9.327,1.741c1.695-0.279,4.868,1.133,5.382,2.519
		c1.008,2.715-0.902,3.911-3.947,4.701c-2.696,0.7-5.606,2.997-7.124,5.406c-7.185,11.401-13.985,23.047-20.781,34.688
		c-1.748,2.994-3.627,4.3-7.241,3.176c-3.214-1-5.96-1.195-6.444-5.864c-1.426-13.734-3.372-27.425-5.594-41.055
		c-0.472-2.896-3.076-5.411-4.509-8.199c-0.674-1.312-1.347-2.928-1.129-4.26c0.099-0.604,2.653-1.531,3.605-1.135
		C515.247,248.465,518.258,250.332,521.731,252.203z M517.931,257.299c-0.654,0.1-1.309,0.2-1.963,0.3
		c2.123,14.434,4.247,28.869,6.37,43.303c0.575-0.09,1.149-0.18,1.724-0.27C522.019,286.187,519.975,271.743,517.931,257.299z"/>
	<path d="M371.937,192.477c0.509,3.943,0.542,8.033,1.699,11.776c0.749,2.423,2.733,4.995,4.887,6.339
		c4.011,2.503,4.231,2.15,4.067,8.424c-4.555-1.19-8.807-2.301-12.956-3.385c-3.844,1.853-8.039,3.876-12.234,5.898
		c-0.467-0.408-0.934-0.816-1.401-1.225c0.339-1.543,0.567-3.121,1.04-4.621c0.998-3.172,3.191-6.37,3.003-9.441
		c-0.621-10.126-1.817-20.242-3.4-30.266c-0.433-2.743-3.021-5.136-4.572-7.718c-0.756-1.259-1.404-2.583-2.022-3.732
		c0.802-0.691,1.077-1.115,1.293-1.087c7.985,1.039,15.757,1.027,23.327-2.591c1.756-0.839,4.64-0.002,6.752,0.764
		c2.586,0.938,4.771,2.363,6.973-0.731c0.227-0.319,3.773,0.696,4.185,1.729c1.284,3.212,1.948,6.706,2.52,10.147
		c0.159,0.959-0.634,2.821-1.341,3.019c-1.317,0.369-3.315,0.337-4.273-0.449c-2.156-1.769-3.488-4.776-5.825-6.028
		c-2.705-1.449-6.149-2.176-9.237-2.078c-3.372,0.106-5.259,2.467-4.596,6.258c0.401,2.291,0.3,4.677,0.792,6.94
		c0.348,1.6,1.313,3.065,2.002,4.591c1.906-1.053,3.973-1.896,5.673-3.214c1.891-1.467,3.447-3.366,6.055-4.599
		c-0.428,6.305-1.748,12.137,3.004,16.985c-2.823,2.216-4.509,2.226-6.915-0.001c-1.892-1.751-4.938-2.256-7.472-3.315
		C372.622,191.404,372.279,191.94,371.937,192.477z M363.16,209.7c0.457-0.08,0.913-0.16,1.37-0.24
		c-1.515-12.974-3.031-25.948-4.546-38.923c-0.482,0.058-0.964,0.116-1.445,0.174C360.079,183.708,361.62,196.704,363.16,209.7z"/>
	<path d="M688.427,270.069c-6.68,0.069-13.942-1.933-19.106-8.986c-0.608-0.83-2.481-0.891-3.795-1.01
		c-2.297-0.209-4.681,0.11-6.898-0.382c-1.158-0.257-3.014-2.031-2.845-2.664c0.394-1.48,1.613-3.549,2.866-3.851
		c5.303-1.278,8.141-4.573,9.921-9.512c2.822-7.828,5.919-15.56,9.067-23.265c1.587-3.883,1.853-7.227-1.438-10.527
		c-0.861-0.863-0.321-3.124-0.425-4.742c1.465-0.029,3.606-0.701,4.287,0.015c5.318,5.589,11.718,8.004,19.346,7.867
		c0.839-0.015,2.546,1.985,2.383,2.729c-0.279,1.272-1.616,3.143-2.689,3.273c-5.791,0.703-8.65,4.017-10.321,9.351
		c-2.537,8.098-5.603,16.029-8.364,24.058c-1.692,4.92-0.502,7.171,4.516,8.463c5.956,1.534,11.08-0.683,16.089-3.659
		c1.479-0.879,3.402-1.01,5.122-1.483c-0.384,2.016-0.293,4.301-1.25,5.992c-1.961,3.462-4.38,6.687-6.827,9.842
		c-1.018,1.312-2.899,3.297-3.846,3.033C692.412,274.106,690.992,272.209,688.427,270.069z M668.185,252.837
		c8.545-11.388,11.11-24.55,14.6-37.339C677.996,227.747,673.206,239.996,668.185,252.837z"/>
	<path d="M285.64,445.816c4.415,2.358,8.634,1.643,11.452-1.703c1.586-1.883,2.096-5.638,1.498-8.175
		c-0.971-4.128-4.594-5.839-8.85-5.845c-1.165-0.002-2.605,0.368-3.428-0.176c-1.107-0.73-2.395-2.186-2.387-3.322
		c0.007-1.132,1.298-2.845,2.416-3.265c3.053-1.146,6.624-1.171,9.416-2.692c4.472-2.435,5.232-8.601,2.269-13.221
		c-2.164-3.374-6.243-4.218-10.11-1.984c-2.195,1.268-3.444,2.446-1.649,5.507c1.161,1.981,1.123,5.429,0.188,7.602
		c-0.606,1.407-4.288,2.842-5.723,2.23c-2.253-0.962-4.643-3.345-5.43-5.653c-1.945-5.704,2.167-12.887,9.063-14.445
		c5.471-1.236,11.748-1.552,17.094-0.126c10.524,2.807,12.407,16.318,3.945,25.089c5.208,3.851,7.517,8.925,5.527,15.265
		c-2.122,6.759-6.697,11.427-13.894,11.893c-5.152,0.333-10.556-0.238-15.559-1.525c-4.017-1.034-6.754-4.669-6.57-9.062
		c0.089-2.128,1.546-4.813,3.252-6.058c1.297-0.947,4.722-0.805,5.834,0.269c1.494,1.442,1.805,4.215,2.344,6.483
		C286.535,443.724,285.923,444.738,285.64,445.816z"/>
	<path d="M433.903,298.501c-3.315-1.129-6.631-2.257-9.874-3.361c-2.818,1.177-5.787,2.565-8.872,3.605
		c-0.826,0.278-2.765-0.342-2.874-0.839c-0.237-1.08-0.025-2.943,0.709-3.437c3.992-2.687,3.991-6.488,3.753-10.632
		c-0.571-9.964-0.865-19.943-1.479-29.904c-0.097-1.57-1.027-4.109-2.026-4.354c-1.381-0.339-3.967,0.614-4.678,1.817
		c-2.38,4.026-4.157,8.408-6.369,13.086c-3.014-0.214-4.552-2.152-4.399-6.025c0.211-5.342,0.053-10.699,0.053-17.914
		c5.275,6.76,9.539,3.162,14.228,1.641c3.047-0.988,6.675-0.186,10.068,0.613c4.916-3.115,9.837-3.094,15.415-0.566
		c2.006,0.909,5.106-0.596,7.765-1.009c3.411,8.497,2.061,19.448-2.765,21.963c-1.211-3.742-2.015-7.709-3.811-11.159
		c-0.92-1.767-3.625-3.659-5.505-3.641c-3.365,0.032-5.113,2.723-4.994,6.236c0.203,5.985,0.447,11.968,0.651,17.952
		c0.13,3.824,0.283,7.649,0.309,11.474c0.024,3.619,0.186,6.909,4.381,8.6c1.017,0.41,1.222,2.835,1.8,4.333
		C434.894,297.489,434.398,297.995,433.903,298.501z M419.797,250.413c-0.597-0.02-1.194-0.041-1.791-0.061
		c0.584,12.69,1.169,25.381,1.753,38.071c0.62-0.033,1.24-0.065,1.859-0.098C421.011,275.688,420.404,263.05,419.797,250.413z"/>
	<path d="M813.056,433.085c0.903-10.241,7.173-16.589,17.116-16.884c7.045-0.209,13.552,5.271,14.695,12.339
		c0.181,1.118,0.145,2.724,0.843,3.23c3.916,2.837,1.869,6.321,1.187,9.55c-0.523,2.477-1.412,4.918-2.452,7.234
		c-1.401,3.121-2.657,6.471-4.777,9.069c-3.458,4.237-6.116,4.079-10.775,1.362c-5.437-3.171-9.768-6.854-10.037-13.754
		c-0.036-0.932-1.29-1.759-1.739-2.744C815.702,439.38,814.401,436.223,813.056,433.085z"/>
	<path d="M53.815,437.355c-2.356,5.395-4.74,12.382-8.415,18.607c-1.77,2.999-5.775,4.972-9.16,6.592
		c-1.52,0.727-4.54,0.097-5.924-1.06c-2.466-2.063-4.732-4.741-6.12-7.625c-1.798-3.737-3.068-7.857-3.758-11.949
		c-0.404-2.396,0.725-5.065,1.247-7.594c0.153-0.741,0.724-1.395,0.88-2.135c2.503-11.915,9.93-15.989,21.294-11.648
		C51.636,423.513,54.375,427.698,53.815,437.355z"/>
	<path d="M231.742,209.756c-1.628-0.549-3.52-0.744-4.831-1.719c-2.788-2.074-5.06-4.873-7.932-6.794
		c-4.754-3.18-10.986-1.07-13.359,4.14c-4.95,10.864,1.816,31.407,12.275,37.273c7.277,4.081,15.47,0.722,17.823-7.437
		c0.64-2.22,0.489-4.68,1.212-6.861c0.405-1.221,1.857-2.095,2.836-3.126c0.966,1.033,2.685,2.001,2.782,3.111
		c0.855,9.809-3.482,17.101-11.752,22.021c-7.99,4.754-16.228,4.95-24.031-0.353c-11.372-7.73-17.352-24.293-13.934-37.642
		c2.946-11.505,11.047-17.637,22.977-17.326c2.403,0.062,4.599,0.829,5.885-2.654c0.594-1.608,3.977-3.028,5.346,0.585
		c1.934,5.101,3.732,10.254,5.587,15.384C232.332,208.822,232.037,209.289,231.742,209.756z M195.781,212.351
		c-5.795,11.65,6.745,38.274,19.755,37.866C201.343,241.984,195.824,229.031,195.781,212.351z"/>
	<path d="M513.167,412.946c-4.664,0-9.351,0.104-14.031-0.029c-4.602-0.131-9.104-0.475-11.349,4.962
		c-0.313,0.759-2.21,1.265-3.298,1.153c-0.659-0.068-1.648-1.539-1.672-2.402c-0.153-5.457-0.078-10.92-0.078-16.116
		c0.833-0.403,1.257-0.749,1.401-0.657c5.657,3.608,11.155,2.405,16.84-0.116c1.458-0.647,3.67-0.153,5.356,0.383
		c4.084,1.301,7.916,1.958,12.051-0.178c2.523-1.304,4.952-0.143,4.552,3.036c-0.464,3.694-1.104,7.611-2.798,10.837
		c-1.729,3.293-4.823,5.871-7.335,8.749c-1.529,1.751-3.338,3.314-4.587,5.243c-4.447,6.871-1.491,11.97,7.186,12.637
		c0.663,7.035-5.847,11.999-10.986,12.346c-6.014,0.406-12.002-4.292-13.009-10.757c-1.18-7.573,1.721-13.783,7.397-18.6
		c2.767-2.348,6.146-3.958,9.115-6.088C510.025,415.838,511.905,414.018,513.167,412.946z M500.455,429.14
		c-4.41,5.112-4.663,9.569-0.652,12.717C500.021,437.609,500.258,432.987,500.455,429.14z"/>
	<path d="M569.433,231.089c-7.985-0.586-15.844-2.527-19.596-11.729c-1.714-4.205-0.748-7.908,1.887-11.207
		c2.798-3.503,7.798-3.584,11.081-0.459c3.119,2.968,3.156,7.463,0.379,10.764c-1.096,1.303-1.62,3.088-2.404,4.653
		c2.113,1.013,4.232,2.875,6.338,2.861c4.39-0.029,7.679-2.831,8.726-7.022c2.542-10.176,4.873-20.424,6.677-30.749
		c0.338-1.936-2.232-4.336-3.334-6.583c-0.708-1.443-1.185-2.999-1.766-4.505c1.434-0.333,2.858-0.72,4.307-0.967
		c0.446-0.076,1.023,0.128,1.43,0.381c5.408,3.368,10.603,7.426,17.631,3.814c0.532-0.273,3.273,1.975,3.119,2.472
		c-0.483,1.56-1.683,3.829-2.923,4.051c-4.042,0.724-5.42,3.061-6.154,6.733c-1.565,7.833-3.134,15.694-5.32,23.367
		C586.849,226.302,579.505,231.348,569.433,231.089z M587.329,186.245c-0.517-0.127-1.034-0.255-1.552-0.382
		c-2.585,11.849-5.169,23.697-7.754,35.546c0.465,0.1,0.93,0.201,1.395,0.301C582.056,209.889,584.692,198.067,587.329,186.245z"/>
	<path d="M210.752,401.638c0,8.557-0.004,17.828,0.002,27.098c0.002,3.66,0.122,7.323,0.007,10.978
		c-0.099,3.119,0.723,5.355,3.843,6.797c1.074,0.496,2.303,3.097,1.879,3.878c-0.832,1.535-2.93,3.6-4.224,3.421
		c-2.947-0.409-5.724-2.041-8.127-3c-4.148,0.752-8.202,1.763-12.297,1.975c-0.746,0.039-1.66-3.187-2.712-5.347
		c6.796-0.707,8.354-4.431,8.057-10.135c-0.433-8.297-0.262-16.63-0.221-24.946c0.016-3.394,0.471-6.874-4.739-5.251
		c-0.552-7.469,1.889-9.423,8.604-7.64C203.722,400.236,206.686,400.759,210.752,401.638z"/>
	<path d="M519.195,221.753c1.193-2.042,2.017-3.519,2.905-4.956c1.658-2.685,4.312-5.166,4.856-8.052
		c1.784-9.473,2.75-19.098,4.152-28.646c0.528-3.597-0.002-6.492-3.296-8.696c-0.895-0.599-1.457-2.496-1.256-3.636
		c0.123-0.695,1.95-1.343,3.091-1.533c1.086-0.181,2.572-0.125,3.371,0.491c4.641,3.579,9.563,3.153,14.827,1.848
		c1.154-0.286,2.774,1.31,4.18,2.039c-0.952,1.307-1.667,3.408-2.898,3.773c-3.822,1.135-5.207,3.552-5.657,7.249
		c-1.307,10.734-2.987,21.425-4.096,32.177c-0.214,2.073,1.53,4.333,2.306,6.53c0.444,1.259,0.757,2.564,1.129,3.849
		c-1.2,0.246-2.392,0.596-3.604,0.696c-0.615,0.051-1.453-0.16-1.873-0.574c-4.477-4.418-9.504-4.629-14.984-2.203
		C521.848,222.329,521.102,221.991,519.195,221.753z M529.252,214.119c3.847-8.593,7.13-35.447,5.302-38.56
		C532.864,187.844,531.133,200.438,529.252,214.119z"/>
	<path d="M480.281,498.011c0-4.157,0.089-8.316-0.03-12.47c-0.086-3.022,1.43-4.288,4.207-4.28
		c5.153,0.015,10.334-0.182,15.453,0.279c7.131,0.643,10.378,6.504,8.17,13.386c-0.559,1.742-0.384,4.096,0.327,5.805
		c3.094,7.437-1.068,14.633-9.043,14.978c-4.65,0.202-9.319-0.053-13.967,0.165c-3.987,0.187-5.334-1.671-5.214-5.39
		c0.134-4.154,0.031-8.315,0.031-12.473C480.237,498.011,480.259,498.011,480.281,498.011z M487.211,508.895
		c4.032,0,7.525,0.343,10.892-0.158c1.476-0.219,2.696-2.16,4.033-3.319c-1.369-1.365-2.582-3.642-4.14-3.91
		c-3.467-0.595-7.107-0.186-10.785-0.186C487.211,504.138,487.211,506.23,487.211,508.895z M487.215,495.128
		c3.791,0,7.131,0.382,10.315-0.157c1.665-0.282,3.055-2.183,4.569-3.353c-1.491-1.413-2.807-3.71-4.511-4.049
		c-3.273-0.65-6.766-0.189-10.373-0.189C487.215,490.379,487.215,492.455,487.215,495.128z"/>
	<path d="M762.588,477.979c0.307-0.327,0.613-0.654,0.919-0.982c0.737-0.369,1.473-0.739,2.429-1.219
		c0.926,1.731,2.056,3.301,2.634,5.054c0.796,2.411,1.174,4.959,1.731,7.448c-2.857,0.468-5.725,1.357-8.569,1.286
		c-2.79-0.069-5.604-0.957-8.314-1.789c-1.723-0.529-3.238-1.699-4.917-2.42c-1.266-0.544-2.627-1.104-3.973-1.178
		c-3.122-0.172-6.26-0.055-9.429-1.021c2.824,0,5.648,0,8.472,0c0.008-0.199,0.016-0.397,0.024-0.596
		c-2.276-0.22-4.551-0.44-6.827-0.66c0.015-0.323,0.029-0.645,0.044-0.968c2.774,0,5.589-0.289,8.312,0.085
		c2.504,0.344,4.91,1.4,7.65,1.468c-0.383-0.21-0.766-0.421-1.758-0.966c1.574-0.432,2.725-0.747,4.677-1.283
		c-2.796-0.13-4.765-0.221-7.662-0.355c2.364-1.634,4.028-2.784,6.181-4.272c-1.786-0.284-3.254-0.517-4.721-0.75
		c-0.004-0.168-0.009-0.337-0.013-0.505c1.385-0.243,2.77-0.487,5.197-0.913c-5.586-1.479-12.463,1.16-14.202-5.254
		c-0.74-2.73-3.106-8.135,4.495-9.906c-2.713-0.266-3.824-0.375-5.061-0.496c3.304-1.283,6.491-2.522,10.134-3.937
		c-1.434-0.991-2.232-1.543-2.951-2.04c-0.323-4.493,12.561-13.874,18.763-13.471c-0.687,2.044-1.34,3.989-1.993,5.933
		c-2.279,2.382-4.558,4.763-6.837,7.145c-0.355,2.198-1.058,4.405-0.998,6.591c0.157,5.716,0.523,11.435,1.05,17.13
		C757.397,478.624,759.097,480.247,762.588,477.979z"/>
	<path d="M408.563,499.109c0-3.998-0.215-8.014,0.108-11.986c0.125-1.537,1.109-3.792,2.317-4.326
		c8.809-3.895,20.984,0.592,25.069,8.935c5.023,10.259-1.137,22.191-12.388,23.995c-13.839,2.219-15.185,1.086-15.015-12.619
		c0.017-1.333,0.002-2.666,0.002-3.998C408.625,499.109,408.594,499.109,408.563,499.109z M415.502,508.928
		c5.562,0.668,10.457,0.349,13.488-4.656c2.27-3.748,1.94-7.698-0.731-11.178c-3.309-4.31-7.861-4.063-12.757-3.283
		C415.502,496.215,415.502,502.295,415.502,508.928z"/>
	<path d="M330.126,482.891c9.478-0.071,16.94,7.09,17.089,16.402c0.159,9.898-7.209,17.645-16.898,17.766
		c-9.172,0.114-17.355-7.963-17.301-17.077C313.073,490.451,320.57,482.963,330.126,482.891z M340.288,499.757
		c-0.113-5.848-4.851-10.502-10.501-10.313c-5.377,0.179-9.857,4.969-9.841,10.522c0.017,5.821,4.714,10.357,10.525,10.164
		C336.076,509.944,340.397,505.378,340.288,499.757z"/>
	<path d="M393.431,499.956c-0.116,9.464-7.901,17.127-17.236,16.967c-9.474-0.163-17.235-8.056-16.988-17.279
		c0.255-9.515,7.906-16.949,17.386-16.893C386.255,482.809,393.55,490.262,393.431,499.956z M386.305,499.77
		c-0.077-5.93-4.505-10.281-10.521-10.336c-5.331-0.049-10,4.855-9.895,10.392c0.11,5.755,4.493,10.27,10.008,10.31
		C381.82,510.179,386.381,505.636,386.305,499.77z"/>
	<path d="M297.178,486.98c-1.45,3.662-3.037,5.412-7.179,3.495c-3.774-1.747-9.449,1.01-11.593,4.723
		c-2.174,3.766-1.494,8.629,1.677,11.988c2.906,3.079,8.509,4.333,11.914,2.275c1.186-0.717,1.741-2.476,2.585-3.76
		c-1.18-0.578-2.487-0.99-3.506-1.776c-1.192-0.921-3.159-2.428-2.958-3.216c0.368-1.448,1.926-3.395,3.256-3.633
		c3.02-0.541,6.202-0.17,9.13-0.17c2.674,11.323,0.87,16.347-6.531,19.438c-6.974,2.913-16.685-0.333-21.08-7.045
		c-4.461-6.813-3.144-16.296,3.031-21.812C281.833,482.204,290.691,481.901,297.178,486.98z"/>
	<path d="M589.748,481.34c0,2.101,0,3.543,0,5.862c-4.873,0-9.733,0-14.85,0c0,2.633,0,4.391,0,5.809
		c2.773,2.989,9.644-2.086,9.339,4.679c-0.267,5.93-6.019,1.527-9.167,3.71c0,1.743,0,3.979,0,6.826c4.223,0,8.47,0.103,12.709-0.04
		c2.418-0.082,4.21-0.07,4.278,3.18c0.067,3.174-1.767,3.49-4.123,3.565c-5.659,0.18-11.319,0.363-16.976,0.601
		c-2.724,0.115-3.975-1.092-3.979-3.826c-0.012-8.993-0.185-17.988-0.008-26.976c0.023-1.147,1.706-3.196,2.69-3.239
		C576.263,481.2,582.882,481.34,589.748,481.34z"/>
	<path d="M641.214,90.983c-2.349,0-3.962,0-6.178,0c0-9.742,0-19.447,0-29.329c4.478-1.421,7.843-0.736,9.895,4.199
		c1.159,2.787,3.212,5.203,5.844,7.456c0-3.895,0-7.79,0-11.534c6.421-1.757,6.906-1.469,6.947,4.281
		c0.058,8.136,0.015,16.272,0.015,25.069c-11.322,0.601-9.962-11.116-16.523-15.374C641.214,80.814,641.214,85.792,641.214,90.983z"
		/>
	<path d="M695.077,75.521c0.058,9.023-6.198,16.118-14.218,16.127c-8.505,0.009-14.663-6.219-14.738-14.905
		c-0.083-9.639,5.601-16.347,13.783-16.266C688.787,60.566,695.021,66.747,695.077,75.521z M672.94,76.257
		c-0.057,5.516,2.964,8.986,7.775,8.929c4.019-0.047,7.753-4.217,7.856-8.773c0.119-5.249-3.414-9.311-8.211-9.441
		C675.831,66.848,673.001,70.389,672.94,76.257z"/>
	<path d="M220.711,88.554c1.034-2.78,1.544-4.151,2.116-5.688c3.227,0.753,6.244,1.911,9.29,1.991
		c1.721,0.045,3.49-1.68,5.237-2.608c-1.373-1.35-2.533-3.131-4.173-3.945c-2.191-1.088-5.252-0.809-7.032-2.243
		c-2.208-1.778-4.481-4.541-4.926-7.182c-0.605-3.589,1.598-6.821,5.443-7.955c6.648-1.96,12.74-0.856,18.433,3.899
		c-0.924,1.617-1.715,3.002-2.224,3.893c-4.012-0.94-7.489-2.027-11.044-2.442c-1.284-0.15-2.755,1.311-4.141,2.037
		c1.15,0.952,2.169,2.19,3.48,2.792c2.254,1.035,4.792,1.46,7.028,2.524c3.874,1.843,6.692,4.668,5.686,9.404
		c-1.005,4.728-4.092,8.018-8.959,7.931C230.424,90.883,225.947,89.499,220.711,88.554z"/>
	<path d="M213.592,59.941c0,2.671,0,4.426,0,6.741c-4.205,0-8.105,0-12.297,0c0,1.968,0,3.376,0,5.186
		c2.266,0.274,4.499,0.543,7.183,0.868c0.085,1.625,0.167,3.179,0.27,5.142c-2.555,0.275-4.779,0.515-7.374,0.794
		c-0.082,1.748-0.156,3.318-0.254,5.392c4.721,0.3,9.112,0.58,13.772,0.876c0,1.996,0,3.718,0,5.986
		c-6.053,0-11.819,0.121-17.57-0.128c-0.881-0.038-2.371-1.756-2.42-2.754c-0.412-8.3-0.651-16.613-0.649-24.922
		c0-1.06,1.643-2.985,2.606-3.037C202.295,59.788,207.758,59.941,213.592,59.941z"/>
	<path d="M536.973,494.167c5.591-3.795,5.01-15.102,16.952-12.523c-3.088,4.899-5.492,9.357-8.517,13.346
		c-3.64,4.801-6.237,9.675-5.328,15.961c0.307,2.125,0.146,4.439-3.099,4.544c-3.47,0.113-3.779-2.125-3.512-4.61
		c0.63-5.844-1.551-10.528-5.145-15.006c-3.284-4.092-5.963-8.669-9.447-13.831C530.757,479.065,531.09,490.393,536.973,494.167z"/>
	<path d="M107.336,447.266c-1.057-0.395-2.114-0.789-3.171-1.184c-0.686-1.826-1.372-3.652-2.065-5.496
		c8.443-2.079,18.678,7.798,17.833,16.02c2.21,1.818,4.027,3.313,6.359,5.231c-2.753,0-4.683,0-7.943,0
		c3.371,1.59,5.57,2.628,8.221,3.879c-1.784,0.295-3.064,0.506-4.507,0.744c0.246,0.156,0.393,0.33,0.543,0.333
		c2.312,0.046,5.319-0.075,4.867,3.077c-0.221,1.538-2.805,3.037-4.619,3.977c-2.993,1.551-6.228,2.635-9.361,3.915l0.148-0.054
		c-3.873-0.194-3.066-2.836-2.748-5.235c0.529-3.996,1.045-7.994,1.638-12.54c0.272-0.029,1.467-0.156,1.37-0.145
		c-0.876-2.19-1.647-4.62-2.801-6.853C110.063,450.933,108.607,449.148,107.336,447.266z"/>
	<path d="M709.269,510.443c7.787-3.257,15.948-5.546,23.106,0.412c3.581,2.981,5.958,7.808,7.779,12.251
		c0.519,1.266-2.823,4.114-5.175,7.29c-2.509-4.984-4.263-8.469-6.286-12.487c-2.497,2.083-4.694,3.916-7.965,6.645
		c0.949-3.363,1.576-5.582,2.269-8.037c-5.427-3.114-6.766,4.992-11.535,4.228c0.351-0.989,0.643-1.815,0.945-2.664
		c-1.443,0.069-2.846,0.135-4.902,0.233c0.878-1.273,1.389-2.015,1.945-2.822c-1.612,0.187-3.171,0.368-5.448,0.632
		c2.139-2.286,3.758-4.017,5.391-5.758C709.406,510.356,709.269,510.443,709.269,510.443z"/>
	<path d="M162.13,514.631c0.624,0.702,1.248,1.404,2.49,2.801c-1.785-0.177-2.68-0.202-3.547-0.372
		c-0.773-0.151-1.515-0.462-3.015-0.94c1.293,1.365,2.072,2.188,3.5,3.696c-2.443-0.189-3.944-0.305-5.505-0.426
		c0.365,0.832,0.668,1.523,1.073,2.447c-4.798,0.966-6.216-7.342-11.603-3.936c0.707,2.359,1.341,4.472,2.358,7.864
		c-3.288-2.639-5.483-4.402-8.207-6.589c-1.131,2.7-1.72,4.969-2.959,6.797c-1.031,1.521-3.712,3.83-4.138,3.542
		c-2.408-1.631-5.488-3.123-3.807-7.341c4.394-11.023,13.213-15.55,24.745-12.216c2.213,0.64,4.296,1.73,6.438,2.613
		C160.679,513.257,161.405,513.944,162.13,514.631z"/>
	<path d="M179.3,90.092c-5.068,1.399-7.452,0.386-6.754-4.156c1.019-6.639-2.19-11.856-5.367-17.15
		c-1.592-2.653-2.988-5.423-4.537-8.257c9.596-3.443,8.665,6.227,12.877,9.364c4.063-3.009,2.892-12.584,12.329-9.318
		C184.122,70.171,175.877,78.487,179.3,90.092z"/>
	<path d="M113.493,477.764c2.021,0.59,4.042,1.179,6.007,1.752c-0.564,0.225-1.339,0.535-2.461,0.983
		c0.954,0.371,1.544,0.601,3.03,1.18c-2.144,0.302-3.481,0.49-4.903,0.69c0.199,0.183,0.361,0.459,0.516,0.455
		c3.108-0.074,6.232-0.421,9.317-0.203c2.378,0.168,4.706,1.037,6.909,2.188c-4.067,3.126-10.441-2.277-12.493,4.273
		c-4.778,0.798-9.226,1.88-13.725,2.162c-2.597,0.163-5.275-0.966-7.917-1.514c0.615-2.497,1.086-5.041,1.894-7.474
		c0.556-1.676,1.579-3.197,2.57-5.133c3.568,5.203,7.44,4.256,11.387,0.593C113.64,477.71,113.493,477.764,113.493,477.764z"/>
	<path d="M749.259,490.853c-3.477-0.975-5.892,0.911-7.576,3.425c-2.557,3.817-4.667,7.933-7.622,13.057
		c-5.188-1.363-11.614-3.052-18.04-4.741c0.015-0.208,0.03-0.416,0.046-0.624c2.204,0,4.408,0,6.611,0
		c0.019-0.279,0.039-0.558,0.058-0.838c-3.677-0.373-7.355-0.747-11.032-1.12c0.037-0.354,0.074-0.709,0.112-1.063
		c6.386,0.727,12.772,1.454,19.226,2.189c-0.754-1.275-2.155-2.847-1.862-3.283c1.679-2.506,2.603-4.348-1.636-4.809
		c2.112,0.173,4.224,0.347,6.336,0.52c0.077-0.235,0.154-0.471,0.231-0.706c-1.974-0.45-3.948-0.9-6.214-1.417
		c7.141-1.021,14.101-2.016,21.207-3.032c0,0.793,0,1.687,0.005,2.578C749.113,490.987,749.259,490.853,749.259,490.853z"/>
	<path d="M695.186,519.182c-2.336-0.554-4.671-1.109-7.007-1.663c-0.02-0.152-0.04-0.304-0.06-0.456
		c2.145-0.098,4.29-0.197,6.481-0.297c-0.369-1.122-0.688-2.091-1.057-3.211c1.799-0.089,3.974-0.198,6.771-0.337
		c-0.616-1.123-0.999-1.82-1.541-2.807c1.062-0.207,2.22-0.433,3.89-0.758c-1.42-1.154-2.585-2.101-4.569-3.713
		c7.227-0.757,13.908-1.456,20.59-2.156c-0.016,0.344-0.031,0.687-0.047,1.031c-3.114,1.871-6.228,3.741-9.354,5.62
		c-0.013,0.008,0.124-0.079,0.111-0.069c-1.099,0.616-2.254,1.123-3.253,1.848c-1.67,1.211-3.24,2.559-4.852,3.85
		c2.009,1.632,4.018,3.263,6.965,5.658c-4.847-0.975-9.015-1.813-13.186-2.655C695.064,519.064,695.186,519.182,695.186,519.182z"/>
	<path d="M140.882,500.598c-1.647,0.537-3.033,1.246-4.481,1.409c-3.133,0.353-6.009,1.185-7.745-3.421
		c-1.16-3.077-4.973-5.154-7.358-7.447c4.242,0,9.349,0,14.456,0c0.026,0.239,0.053,0.478,0.079,0.717
		c-0.866,0.138-1.733,0.276-3.446,0.549c2.026,0.27,3.266,0.435,4.506,0.6c0.032,0.184,0.064,0.369,0.096,0.553
		c-1.066,0.239-2.131,0.479-3.197,0.718c0.031,0.308,0.061,0.617,0.092,0.925c3.416-0.296,6.832-0.591,11.222-0.971
		c-1.23,0.393-1.515,0.451-1.77,0.571c-1.129,0.534-2.215,1.437-3.381,1.551c-1.848,0.18-3.747-0.164-5.651-0.288
		C136.627,497.664,138.748,499.126,140.882,500.598z"/>
	<path d="M162.13,514.631c-0.726-0.687-1.452-1.374-2.177-2.06c-3.328-2.088-6.656-4.177-10.006-6.279
		c6.071-1.623,12.477-0.857,18.244,1.798c-0.252,1.208-0.47,2.258-0.689,3.307c0.497,0.154,0.993,0.308,1.49,0.463
		c-0.79,1.157-1.579,2.314-2.369,3.471l0.145-0.132C165.223,515.009,163.677,514.82,162.13,514.631z"/>
	<path d="M673.59,527.758c0.377-0.989,0.486-2.546,1.176-2.872c3.644-1.72,7.434-3.13,10.878-4.527
		c-0.132-0.065-0.822-0.407-2.389-1.183c4.548,0,8.237,0,11.928,0.003c0.003,0.003-0.119-0.116-0.116-0.113
		c-5.438,3.938-10.313,9.232-18.215,7c-0.857-0.242-2.157,1.084-3.252,1.683C673.599,527.75,673.59,527.758,673.59,527.758z"/>
	<path d="M143.57,505.445c0.663,0.429,1.152,0.746,2.106,1.363c-4.327,0.64-8.199,1.212-12.299,1.818
		c-0.667-1.764-1.291-3.417-2.075-5.492c4.745-0.379,9.266-0.74,13.788-1.101c0.061,0.188,0.122,0.375,0.183,0.563
		c-0.761,0.273-1.522,0.546-2.283,0.819c0.008,0.162,0.015,0.325,0.022,0.487c3.671-0.27,7.342-0.539,11.013-0.809
		c0.026,0.183,0.052,0.366,0.078,0.549C150.638,504.235,147.172,504.829,143.57,505.445z"/>
	<path d="M166.623,515.329c3.106,0.416,6.972-2.292,9.117,2.499c0.311,0.694,3.078,0.287,4.783,0.908
		c-6.54,1.52-13.081,3.04-19.621,4.56c-0.139-0.479-0.277-0.958-0.416-1.438c3.362-1.289,6.725-2.577,9.125-3.497
		c-0.552-0.623-1.687-1.904-2.832-3.174C166.769,515.198,166.623,515.329,166.623,515.329z"/>
	<path d="M180.01,526.129c-0.628-1.026-1.255-2.053-1.812-2.963c6.468-0.898,12.91-0.805,17.786,4.961
		c0.001,0,0.094-0.171,0.094-0.171c-5.399-0.672-10.798-1.344-16.197-2.016L180.01,526.129z"/>
	<path fill="#FFFFFF" d="M118.011,512.498c0.334-0.387,0.668-0.774,1.005-1.162c0.003-0.002,0.037,0.091,0.037,0.091
		C118.706,511.784,118.358,512.141,118.011,512.498z"/>
	<path d="M118.011,512.498c0.347-0.357,0.695-0.714,1.042-1.071c-0.286,0.423-0.572,0.845-0.862,1.265
		C118.188,512.689,118.011,512.498,118.011,512.498z"/>
	<path fill="#FFFFFF" d="M116.778,510.406c0.528-0.032,1.056-0.064,1.591-0.102c0.006-0.006,0.064-0.144,0.07-0.15
		c-0.588,0.034-1.181,0.075-1.775,0.115L116.778,510.406z"/>
	<path fill="#FFFFFF" d="M70.349,507.213c-0.202-0.071-0.404-0.141-0.605-0.212c0.086,0.234,0.172,0.468,0.257,0.703
		c0.123-0.162,0.245-0.325,0.368-0.486C70.369,507.219,70.349,507.213,70.349,507.213z"/>
	<path fill="#FFFFFF" d="M116.663,510.269l0.201-0.195c0,0-0.072,0.334-0.079,0.333
		C116.778,510.406,116.663,510.269,116.663,510.269z"/>
	<path fill="#FFFFFF" d="M70.666,508.988c0,0,0.084-0.121,0.083-0.119c-0.133-0.55-0.266-1.102-0.4-1.655
		c-0.001-0.001,0.019,0.005,0.019,0.004C70.468,507.807,70.567,508.397,70.666,508.988z"/>
	<path d="M821.647,58.185c-3.043-6.139-3.043-6.139-14.74-0.668c1.409-3.802,5.637-6.33,9.817-5.87
		C820.138,52.021,821.214,53.452,821.647,58.185z"/>
	<path d="M812.384,67.59c-0.775,0.632-2.612,2.128-4.794,3.905c0-3.807,0-7.173,0-10.104
		C809.103,63.346,810.956,65.742,812.384,67.59z"/>
	<path d="M91.359,82.701c-4.345,3.278-8.284,7.612-13.168,9.487c-3.653,1.403-8.806,0.449-12.78-0.928
		c-4.846-1.68-9.156-4.903-14.166-7.722C64.638,83.777,77.916,88.409,91.359,82.701z M81.909,87.191c-6.94,0-13.152,0-19.16,0
		C68.269,92.343,76.646,92.745,81.909,87.191z"/>
	<path d="M98.775,61.003c-2.257,1.069-4.402,2.837-6.6,2.907c-2.048,0.066-4.154-1.674-6.235-2.62
		c0.104-0.432,0.209-0.863,0.313-1.295c-0.979,0.42-1.957,0.84-4.138,1.775c1.56-1.664,2.187-2.54,3.004-3.17
		C89.309,55.372,92.664,56.053,98.775,61.003z"/>
	<path d="M42.335,63.555c8.349-6.581,11.14-6.996,16.981-3.281c-6.342,6.026-6.543,6.048-10.726,1.204
		C46.941,62.025,45.303,62.569,42.335,63.555z"/>
	<path d="M45.062,80.168c1.868-1.1,3.479-2.788,5.232-2.952c7.045-0.658,7.061-0.484,10.946-5.468c0,2.332,0,4.22,0,6.647
		c-3.424,0.151-7.121,0.11-10.751,0.581c-1.368,0.177-2.582,1.543-3.867,2.364c-0.115,0.074-0.278,0.211-0.355,0.177
		C46.129,81.455,46.04,81.285,45.062,80.168z"/>
	<path d="M41.79,51.157c2.546-2.954,6.087-3.367,9.737-2.967c3.501,0.384,6.959,1.165,10.563,1.794
		c-3.108,3.22-6.521,0.487-9.844,0.365C48.911,50.227,45.55,50.835,41.79,51.157z"/>
	<path d="M95.762,81.164c-2.502-0.83-4.376-1.628-6.332-2.06c-3.352-0.741-7.932,0.181-6.923-6.945
		c1.54,4.872,4.358,5.617,8.111,5.24C93.688,77.091,96.134,78.251,95.762,81.164z"/>
	<path d="M98.994,49.374c-6.555,0.703-12.062,1.294-17.569,1.884c-0.047-0.609-0.095-1.217-0.142-1.826
		C86.89,50.533,92.21,45.354,98.994,49.374z"/>
	<path d="M78.381,97.393c-3.727,0-6.826,0-9.893,0C69.244,93.68,73.569,93.4,78.381,97.393z"/>
</g>
<g>
	<g opacity="0.45">
		<path stroke="#000000" stroke-width="0.6406" stroke-miterlimit="10" d="M533.839,325.214"/>
		<path stroke="#000000" stroke-width="0.6786" stroke-miterlimit="10" d="M435.184,425.197c-0.012,0.001-0.034-0.023-0.035-0.035
			c-0.014-0.164,0.159-0.496,0.294-0.404C435.583,424.851,435.35,425.176,435.184,425.197z"/>
		<path stroke="#000000" stroke-width="1.4116" stroke-miterlimit="10" d="M236.674,103.49
			c93.288,13.647,265.531,97.363,267.261,98.207l2.574,1.256l-0.03,0.419c8.854,5.258,19.381,12.884,32.24,22.569l0.158,0.119
			l0.146,0.133c18.265,16.633,27.72,33.351,28.102,49.688c0.321,13.715-5.743,26.895-18.023,39.175
			c-1.536,1.536-3.192,3.079-4.923,4.587c-4.294,3.742-8.717,6.538-12.618,9.005c-1.961,1.24-3.813,2.411-5.479,3.591
			c-11.442,8.108-24.471,19.3-36.685,31.515c-9.671,9.671-18.44,19.584-26.065,29.464c-3.549,4.599-6.784,9.598-9.912,14.432
			c-1.397,2.159-2.842,4.392-4.297,6.561c-0.098,0.146-0.206,0.292-0.313,0.437l-0.066,0.089l-0.157,0.227
			c-0.203,0.296-0.48,0.702-0.843,1.116c-1.463,1.668-2.956,3.267-4.441,4.752c-12.371,12.371-25.62,18.48-39.38,18.157
			c-16.317-0.383-33.012-9.828-49.622-28.074l-0.151-0.166l-0.706-0.969c-8.096-11.091-13.266-18.455-17.282-24.612l-0.096-0.155
			c-2.296-3.877-4.622-8.021-6.914-12.317c-1.098-2.061-2.189-4.114-3.267-6.162c-37.225-70.92-60.786-137.271-73.998-180.445
			c-14.329-46.826-19.936-77.349-19.991-77.652l-1.052-5.799L236.674,103.49z M359.372,232.265c15.851-15.851,15.85-41.641,0-57.492
			s-41.641-15.851-57.492,0c-15.851,15.851-15.851,41.642,0,57.492S343.522,248.115,359.372,232.265z"/>
		<path opacity="0.2" stroke="#000000" stroke-width="0.638" stroke-miterlimit="10" enable-background="new    " d="
			M297.924,170.858c17.986-17.986,47.252-17.986,65.238,0s17.986,47.252,0,65.238s-47.252,17.986-65.238,0
			C279.938,218.11,279.938,188.845,297.924,170.858z"/>
		<path opacity="0.5" enable-background="new    " d="M331.445,204.379c1.163-1.163-0.641-2.968-1.804-1.804
			C328.476,203.739,330.281,205.543,331.445,204.379z"/>
		<path stroke="#000000" stroke-width="1.4116" stroke-miterlimit="10" d="M444.556,413.289c0.282-0.322,0.508-0.691,0.754-1.033
			c0.096-0.134,0.203-0.268,0.294-0.404c4.698-7.006,9.108-14.399,14.374-21.221c20.378-26.406,46.019-49.351,63.654-61.847
			c5.152-3.65,11.618-6.977,17.763-12.333c30.879-26.909,27.949-56.916-5.225-87.126c-14.279-10.755-25.214-18.596-34.108-23.617
			l0.015-0.205c0,0-172.301-84.112-266.015-97.822c0,0,21.805,120.156,93.57,256.882c1.073,2.041,2.161,4.088,3.254,6.139
			c2.331,4.367,4.607,8.41,6.823,12.153c4.492,6.887,10.206,14.908,17.164,24.44c0.185,0.255,0.369,0.509,0.559,0.769
			C387.635,441.243,417.552,444.093,444.556,413.289z M298.886,171.778c17.53-17.53,45.951-17.53,63.481,0s17.53,45.951,0,63.481
			s-45.951,17.53-63.481,0S281.356,189.308,298.886,171.778z"/>
		
			<text transform="matrix(-0.7071 0.7071 -0.7071 -0.7071 497.5425 258.7699)" font-family="'CaptainHowdy'" font-size="33.8794" letter-spacing="-3">T</text>
		<text transform="matrix(-0.7071 0.7071 -0.7071 -0.7071 484.7728 271.5379)" font-family="'CaptainHowdy'" font-size="33.8794">A</text>
		<text transform="matrix(-0.7071 0.7071 -0.7071 -0.7071 464.2909 292.0216)" font-family="'CaptainHowdy'" font-size="33.8794">L</text>
		<text transform="matrix(-0.7071 0.7071 -0.7071 -0.7071 448.5769 307.7355)" font-family="'CaptainHowdy'" font-size="33.8794">K</text>
		<text transform="matrix(-0.7071 0.7071 -0.7071 -0.7071 431.6394 324.673)" font-family="'CaptainHowdy'" font-size="33.8794">I</text>
		<text transform="matrix(-0.7071 0.7071 -0.7071 -0.7071 422.2732 334.0402)" font-family="'CaptainHowdy'" font-size="33.8794">NG </text>
		<text transform="matrix(-0.7071 0.7071 -0.7071 -0.7071 457.6317 241.1858)" font-family="'CaptainHowdy'" font-size="33.8794">B</text>
		
			<text transform="matrix(-0.7071 0.7071 -0.7071 -0.7071 440.2636 258.5539)" font-family="'CaptainHowdy'" font-size="33.8794" letter-spacing="-1">O</text>
		<text transform="matrix(-0.7071 0.7071 -0.7071 -0.7071 425.6023 273.2152)" font-family="'CaptainHowdy'" font-size="33.8794">A</text>
		<text transform="matrix(-0.7071 0.7071 -0.7071 -0.7071 404.2333 294.5842)" font-family="'CaptainHowdy'" font-size="33.8794">RD</text>
	</g>
	<g>
		<g>
			<path fill="#39B54A" stroke="#000000" stroke-width="0.6406" stroke-miterlimit="10" d="M528.839,320.214"/>
			<path fill="#39B54A" stroke="#000000" stroke-width="0.6786" stroke-miterlimit="10" d="M430.184,420.197
				c-0.012,0.001-0.034-0.023-0.035-0.035c-0.014-0.164,0.159-0.496,0.294-0.404C430.583,419.851,430.35,420.176,430.184,420.197z"
				/>
			<path fill="#F6B554" stroke="#000000" stroke-width="1.4116" stroke-miterlimit="10" d="M231.674,98.49
				c93.288,13.647,265.531,97.363,267.261,98.207l2.574,1.256l-0.03,0.419c8.854,5.258,19.381,12.884,32.24,22.569l0.158,0.119
				l0.146,0.133c18.265,16.633,27.72,33.351,28.102,49.688c0.321,13.715-5.743,26.895-18.023,39.175
				c-1.536,1.536-3.192,3.079-4.923,4.587c-4.294,3.742-8.717,6.538-12.618,9.005c-1.961,1.24-3.813,2.411-5.479,3.591
				c-11.442,8.108-24.471,19.3-36.685,31.515c-9.671,9.671-18.44,19.584-26.065,29.464c-3.549,4.599-6.784,9.598-9.912,14.432
				c-1.397,2.159-2.842,4.392-4.297,6.561c-0.098,0.146-0.206,0.292-0.313,0.437l-0.066,0.089l-0.157,0.227
				c-0.203,0.296-0.48,0.702-0.843,1.116c-1.463,1.668-2.956,3.267-4.441,4.752c-12.371,12.371-25.62,18.48-39.38,18.157
				c-16.317-0.383-33.012-9.828-49.622-28.074l-0.151-0.166l-0.706-0.969c-8.096-11.091-13.266-18.455-17.282-24.612l-0.096-0.155
				c-2.296-3.877-4.622-8.021-6.914-12.317c-1.098-2.061-2.189-4.114-3.267-6.162c-37.225-70.92-60.786-137.271-73.998-180.445
				c-14.329-46.826-19.936-77.349-19.991-77.652l-1.052-5.799L231.674,98.49z M354.372,227.265c15.851-15.851,15.85-41.641,0-57.492
				s-41.641-15.851-57.492,0c-15.851,15.851-15.851,41.642,0,57.492S338.522,243.115,354.372,227.265z"/>
			<g>
				
					<path opacity="0.2" fill="#29ABE2" stroke="#000000" stroke-width="0.638" stroke-miterlimit="10" enable-background="new    " d="
					M292.924,165.858c17.986-17.986,47.252-17.986,65.238,0s17.986,47.252,0,65.238s-47.252,17.986-65.238,0
					C274.938,213.11,274.938,183.845,292.924,165.858z"/>
				<path opacity="0.5" fill="#29ABE2" enable-background="new    " d="M326.445,199.379c1.163-1.163-0.641-2.968-1.804-1.804
					C323.476,198.739,325.281,200.543,326.445,199.379z"/>
			</g>
			<g>
				<path fill="#F6B554" stroke="#000000" stroke-width="1.4116" stroke-miterlimit="10" d="M439.556,408.289
					c0.282-0.322,0.508-0.691,0.754-1.033c0.096-0.134,0.203-0.268,0.294-0.404c4.698-7.006,9.108-14.399,14.374-21.221
					c20.378-26.406,46.019-49.351,63.654-61.847c5.152-3.65,11.618-6.977,17.763-12.333c30.879-26.909,27.949-56.916-5.225-87.126
					c-14.279-10.755-25.214-18.596-34.108-23.617l0.015-0.205c0,0-172.301-84.112-266.015-97.822c0,0,21.805,120.156,93.57,256.882
					c1.073,2.041,2.161,4.088,3.254,6.139c2.331,4.367,4.607,8.41,6.823,12.153c4.492,6.887,10.206,14.908,17.164,24.44
					c0.185,0.255,0.369,0.509,0.559,0.769C382.635,436.243,412.552,439.093,439.556,408.289z M293.886,166.778
					c17.53-17.53,45.951-17.53,63.481,0s17.53,45.951,0,63.481s-45.951,17.53-63.481,0S276.356,184.308,293.886,166.778z"/>
				
					<text transform="matrix(-0.7071 0.7071 -0.7071 -0.7071 492.5425 253.7699)" font-family="'CaptainHowdy'" font-size="33.8794" letter-spacing="-3">T</text>
				<text transform="matrix(-0.7071 0.7071 -0.7071 -0.7071 479.7728 266.5379)" font-family="'CaptainHowdy'" font-size="33.8794">A</text>
				<text transform="matrix(-0.7071 0.7071 -0.7071 -0.7071 459.2909 287.0216)" font-family="'CaptainHowdy'" font-size="33.8794">L</text>
				<text transform="matrix(-0.7071 0.7071 -0.7071 -0.7071 443.5769 302.7355)" font-family="'CaptainHowdy'" font-size="33.8794">K</text>
				<text transform="matrix(-0.7071 0.7071 -0.7071 -0.7071 426.6394 319.673)" font-family="'CaptainHowdy'" font-size="33.8794">I</text>
				<text transform="matrix(-0.7071 0.7071 -0.7071 -0.7071 417.2732 329.0402)" font-family="'CaptainHowdy'" font-size="33.8794">NG </text>
				<text transform="matrix(-0.7071 0.7071 -0.7071 -0.7071 452.6317 236.1858)" font-family="'CaptainHowdy'" font-size="33.8794">B</text>
				
					<text transform="matrix(-0.7071 0.7071 -0.7071 -0.7071 435.2636 253.5539)" font-family="'CaptainHowdy'" font-size="33.8794" letter-spacing="-1">O</text>
				<text transform="matrix(-0.7071 0.7071 -0.7071 -0.7071 420.6023 268.2152)" font-family="'CaptainHowdy'" font-size="33.8794">A</text>
				<text transform="matrix(-0.7071 0.7071 -0.7071 -0.7071 399.2333 289.5842)" font-family="'CaptainHowdy'" font-size="33.8794">RD</text>
			</g>
		</g>
	</g>
</g>
</svg>
