<?xml version="1.0" encoding="UTF-8"?>
<!DOCTYPE svg PUBLIC "-//W3C//DTD SVG 1.1//EN" "http://www.w3.org/Graphics/SVG/1.1/DTD/svg11.dtd">
<svg version="1.1" width="141.83mm" height="145.42mm" viewBox="0 0 14183 14542" preserveAspectRatio="xMidYMid" fill-rule="evenodd" clip-path="url(#presentation_clip_path)" stroke-width="28.222" stroke-linejoin="round" xmlns="http://www.w3.org/2000/svg" xmlns:ooo="http://xml.openoffice.org/svg/export" xmlns:xlink="http://www.w3.org/1999/xlink" xml:space="preserve">
 <defs class="ClipPathGroup">
  <clipPath id="presentation_clip_path" clipPathUnits="userSpaceOnUse">
   <rect x="0" y="0" width="14183" height="14542"/>
  </clipPath>
 </defs>
 <defs class="TextShapeIndex">
  
 </defs>
 <defs class="EmbeddedBulletChars">
  <g id="bullet-char-template57356" transform="scale(0.00048828125,-0.00048828125)">
   <path d="M 580,1141 L 1163,571 580,0 -4,571 580,1141 Z"/>
  </g>
  <g id="bullet-char-template57354" transform="scale(0.00048828125,-0.00048828125)">
   <path d="M 8,1128 L 1137,1128 1137,0 8,0 8,1128 Z"/>
  </g>
  <g id="bullet-char-template10146" transform="scale(0.00048828125,-0.00048828125)">
   <path d="M 174,0 L 602,739 174,1481 1456,739 174,0 Z M 1358,739 L 309,1346 659,739 1358,739 Z"/>
  </g>
  <g id="bullet-char-template10132" transform="scale(0.00048828125,-0.00048828125)">
   <path d="M 2015,739 L 1276,0 717,0 1260,543 174,543 174,936 1260,936 717,1481 1274,1481 2015,739 Z"/>
  </g>
  <g id="bullet-char-template10007" transform="scale(0.00048828125,-0.00048828125)">
   <path d="M 0,-2 C -7,14 -16,27 -25,37 L 356,567 C 262,823 215,952 215,954 215,979 228,992 255,992 264,992 276,990 289,987 310,991 331,999 354,1012 L 381,999 492,748 772,1049 836,1024 860,1049 C 881,1039 901,1025 922,1006 886,937 835,863 770,784 769,783 710,716 594,584 L 774,223 C 774,196 753,168 711,139 L 727,119 C 717,90 699,76 672,76 641,76 570,178 457,381 L 164,-76 C 142,-110 111,-127 72,-127 30,-127 9,-110 8,-76 1,-67 -2,-52 -2,-32 -2,-23 -1,-13 0,-2 Z"/>
  </g>
  <g id="bullet-char-template10004" transform="scale(0.00048828125,-0.00048828125)">
   <path d="M 285,-33 C 182,-33 111,30 74,156 52,228 41,333 41,471 41,549 55,616 82,672 116,743 169,778 240,778 293,778 328,747 346,684 L 369,508 C 377,444 397,411 428,410 L 1163,1116 C 1174,1127 1196,1133 1229,1133 1271,1133 1292,1118 1292,1087 L 1292,965 C 1292,929 1282,901 1262,881 L 442,47 C 390,-6 338,-33 285,-33 Z"/>
  </g>
  <g id="bullet-char-template9679" transform="scale(0.00048828125,-0.00048828125)">
   <path d="M 813,0 C 632,0 489,54 383,161 276,268 223,411 223,592 223,773 276,916 383,1023 489,1130 632,1184 813,1184 992,1184 1136,1130 1245,1023 1353,916 1407,772 1407,592 1407,412 1353,268 1245,161 1136,54 992,0 813,0 Z"/>
  </g>
  <g id="bullet-char-template8226" transform="scale(0.00048828125,-0.00048828125)">
   <path d="M 346,457 C 273,457 209,483 155,535 101,586 74,649 74,723 74,796 101,859 155,911 209,963 273,989 346,989 419,989 480,963 531,910 582,859 608,796 608,723 608,648 583,586 532,535 482,483 420,457 346,457 Z"/>
  </g>
  <g id="bullet-char-template8211" transform="scale(0.00048828125,-0.00048828125)">
   <path d="M -4,459 L 1135,459 1135,606 -4,606 -4,459 Z"/>
  </g>
 </defs>
 <defs class="TextEmbeddedBitmaps"/>
 <g>
  <g id="id2" class="Master_Slide">
   <g id="bg-id2" class="Background"/>
   <g id="bo-id2" class="BackgroundObjects"/>
  </g>
 </g>
 <g class="SlideGroup">
  <g>
   <g id="id1" class="Slide" clip-path="url(#presentation_clip_path)">
    <g class="Page">
     <g class="Group">
      <g class="com.sun.star.drawing.EllipseShape">
       <g id="id3">
        <path fill="rgb(255,255,255)" stroke="none" d="M 7092,14322 C 5793,14322 4689,14026 3564,13377 2439,12727 1631,11919 981,10794 332,9669 36,8565 36,7266 36,5967 332,4863 981,3738 1631,2613 2439,1805 3564,1155 4689,506 5793,210 7092,210 8391,210 9495,506 10620,1155 11745,1805 12553,2613 13203,3738 13852,4863 14148,5967 14148,7266 14148,8565 13852,9669 13203,10794 12553,11919 11745,12727 10620,13377 9495,14026 8391,14322 7092,14322 L 7092,14322 Z"/>
        <path fill="none" stroke="rgb(192,192,192)" stroke-width="71" d="M 7092,14322 C 5793,14322 4689,14026 3564,13377 2439,12727 1631,11919 981,10794 332,9669 36,8565 36,7266 36,5967 332,4863 981,3738 1631,2613 2439,1805 3564,1155 4689,506 5793,210 7092,210 8391,210 9495,506 10620,1155 11745,1805 12553,2613 13203,3738 13852,4863 14148,5967 14148,7266 14148,8565 13852,9669 13203,10794 12553,11919 11745,12727 10620,13377 9495,14026 8391,14322 7092,14322 L 7092,14322 Z"/>
       </g>
      </g>
      <g class="com.sun.star.drawing.EllipseShape">
       <g id="id4">
        <path fill="rgb(255,255,255)" stroke="none" d="M 7094,7268 L 7094,4798 C 7549,4798 7935,4902 8329,5129 8723,5356 9006,5639 9233,6033 L 7094,7268 Z"/>
        <path fill="none" stroke="rgb(192,192,192)" stroke-width="71" d="M 7094,7268 L 7094,4798 C 7549,4798 7935,4902 8329,5129 8723,5356 9006,5639 9233,6033 L 7094,7268 Z"/>
       </g>
      </g>
      <g class="com.sun.star.drawing.TextShape">
       <g id="id5">
        <text class="TextShape"><tspan class="TextParagraph" font-family="Nimbus Sans L, sans-serif" font-size="776px" font-weight="400"><tspan class="TextPosition" x="7277" y="6392"><tspan fill="rgb(192,192,192)" stroke="none">60°</tspan></tspan></tspan></text>
       </g>
      </g>
      <g class="com.sun.star.drawing.PolyLineShape">
       <g id="id6">
        <path fill="none" stroke="rgb(192,192,192)" stroke-width="71" d="M 7093,7267 L 7093,212 7093,7267 13203,3740 7093,7267 13203,10795 7093,7267 7093,14323 7093,7267 983,10795 7093,7267 983,3740 7093,7267 Z"/>
       </g>
      </g>
      <g class="com.sun.star.drawing.EllipseShape">
       <g id="id7">
        <path fill="rgb(255,255,255)" stroke="none" d="M 7094,7445 C 7061,7445 7034,7438 7006,7421 6977,7405 6957,7385 6941,7357 6924,7328 6917,7301 6917,7268 6917,7235 6924,7208 6941,7180 6957,7151 6977,7131 7006,7115 7034,7098 7061,7091 7094,7091 7127,7091 7154,7098 7183,7115 7211,7131 7231,7151 7247,7180 7264,7208 7271,7235 7271,7268 7271,7301 7264,7328 7247,7357 7231,7385 7211,7405 7183,7421 7154,7438 7127,7445 7094,7445 L 7094,7445 Z"/>
        <path fill="none" stroke="rgb(192,192,192)" stroke-width="71" d="M 7094,7445 C 7061,7445 7034,7438 7006,7421 6977,7405 6957,7385 6941,7357 6924,7328 6917,7301 6917,7268 6917,7235 6924,7208 6941,7180 6957,7151 6977,7131 7006,7115 7034,7098 7061,7091 7094,7091 7127,7091 7154,7098 7183,7115 7211,7131 7231,7151 7247,7180 7264,7208 7271,7235 7271,7268 7271,7301 7264,7328 7247,7357 7231,7385 7211,7405 7183,7421 7154,7438 7127,7445 7094,7445 L 7094,7445 Z"/>
       </g>
      </g>
      <g class="com.sun.star.drawing.EllipseShape">
       <g id="id8">
        <path fill="rgb(255,255,255)" stroke="none" d="M 7092,212 L 8734,1160 C 8559,1462 8342,1679 8040,1854 7737,2028 7441,2108 7092,2108 6742,2108 6446,2028 6143,1854 5841,1679 5624,1462 5449,1160 L 7092,212 Z"/>
        <path fill="none" stroke="rgb(0,0,0)" stroke-width="71" d="M 7092,212 L 8734,1160 C 8559,1462 8342,1679 8040,1854 7737,2028 7441,2108 7092,2108 6742,2108 6446,2028 6143,1854 5841,1679 5624,1462 5449,1160 L 7092,212 Z"/>
       </g>
      </g>
      <g class="com.sun.star.drawing.TextShape">
       <g id="id9">
        <text class="TextShape"><tspan class="TextParagraph" font-family="Nimbus Sans L, sans-serif" font-size="776px" font-weight="400"><tspan class="TextPosition" x="6205" y="1711"><tspan fill="rgb(0,0,0)" stroke="none">120°</tspan></tspan></tspan></text>
       </g>
      </g>
      <g class="com.sun.star.drawing.PolyLineShape">
       <g id="id10">
        <path fill="none" stroke="rgb(0,0,0)" stroke-width="141" d="M 7095,216 L 13204,3741 13203,10796 7091,14326 982,10797 981,3741 7092,214"/>
       </g>
      </g>
      <g class="com.sun.star.drawing.EllipseShape">
       <g id="id11">
        <path fill="rgb(255,255,255)" stroke="none" d="M 6935,136 C 6950,107 6969,85 6996,67 7023,49 7050,40 7083,38 7115,37 7144,42 7173,57 7202,71 7223,90 7241,118 7259,145 7268,172 7270,205 7272,237 7266,265 7252,294 7237,323 7218,345 7191,363 7164,381 7137,390 7104,392 7072,394 7043,388 7014,373 6985,359 6964,340 6946,313 6928,285 6919,258 6917,226 6915,193 6921,165 6935,136 L 6935,136 Z"/>
        <path fill="none" stroke="rgb(0,0,0)" stroke-width="71" d="M 6935,136 C 6950,107 6969,85 6996,67 7023,49 7050,40 7083,38 7115,37 7144,42 7173,57 7202,71 7223,90 7241,118 7259,145 7268,172 7270,205 7272,237 7266,265 7252,294 7237,323 7218,345 7191,363 7164,381 7137,390 7104,392 7072,394 7043,388 7014,373 6985,359 6964,340 6946,313 6928,285 6919,258 6917,226 6915,193 6921,165 6935,136 L 6935,136 Z"/>
       </g>
      </g>
      <g class="com.sun.star.drawing.EllipseShape">
       <g id="id12">
        <path fill="rgb(255,255,255)" stroke="none" d="M 13052,3654 C 13068,3626 13088,3606 13117,3590 13145,3573 13173,3566 13205,3566 13238,3566 13265,3573 13294,3590 13322,3606 13342,3626 13359,3654 13375,3683 13382,3710 13382,3743 13382,3775 13375,3803 13359,3831 13342,3860 13322,3880 13294,3896 13265,3912 13238,3920 13205,3920 13173,3920 13145,3912 13117,3896 13088,3880 13068,3860 13052,3831 13036,3803 13028,3775 13028,3743 13028,3710 13036,3683 13052,3654 L 13052,3654 Z"/>
        <path fill="none" stroke="rgb(0,0,0)" stroke-width="71" d="M 13052,3654 C 13068,3626 13088,3606 13117,3590 13145,3573 13173,3566 13205,3566 13238,3566 13265,3573 13294,3590 13322,3606 13342,3626 13359,3654 13375,3683 13382,3710 13382,3743 13382,3775 13375,3803 13359,3831 13342,3860 13322,3880 13294,3896 13265,3912 13238,3920 13205,3920 13173,3920 13145,3912 13117,3896 13088,3880 13068,3860 13052,3831 13036,3803 13028,3775 13028,3743 13028,3710 13036,3683 13052,3654 L 13052,3654 Z"/>
       </g>
      </g>
      <g class="com.sun.star.drawing.EllipseShape">
       <g id="id13">
        <path fill="rgb(255,255,255)" stroke="none" d="M 13204,10623 C 13237,10623 13264,10630 13292,10647 13321,10663 13341,10683 13357,10712 13374,10740 13381,10767 13381,10800 13381,10833 13374,10860 13357,10889 13341,10917 13321,10937 13292,10953 13264,10970 13237,10977 13204,10977 13171,10977 13144,10970 13115,10953 13087,10937 13067,10917 13051,10889 13034,10860 13027,10833 13027,10800 13027,10767 13034,10740 13051,10712 13067,10683 13087,10663 13115,10647 13144,10630 13171,10623 13204,10623 L 13204,10623 Z"/>
        <path fill="none" stroke="rgb(0,0,0)" stroke-width="71" d="M 13204,10623 C 13237,10623 13264,10630 13292,10647 13321,10663 13341,10683 13357,10712 13374,10740 13381,10767 13381,10800 13381,10833 13374,10860 13357,10889 13341,10917 13321,10937 13292,10953 13264,10970 13237,10977 13204,10977 13171,10977 13144,10970 13115,10953 13087,10937 13067,10917 13051,10889 13034,10860 13027,10833 13027,10800 13027,10767 13034,10740 13051,10712 13067,10683 13087,10663 13115,10647 13144,10630 13171,10623 13204,10623 L 13204,10623 Z"/>
       </g>
      </g>
      <g class="com.sun.star.drawing.EllipseShape">
       <g id="id14">
        <path fill="rgb(255,255,255)" stroke="none" d="M 7248,14240 C 7264,14268 7272,14296 7272,14328 7272,14361 7264,14388 7248,14417 7232,14445 7212,14465 7183,14482 7155,14498 7127,14505 7095,14505 7062,14505 7035,14498 7006,14482 6978,14465 6958,14445 6942,14417 6925,14388 6918,14361 6918,14328 6918,14296 6925,14268 6942,14240 6958,14211 6978,14191 7006,14175 7035,14159 7062,14151 7095,14151 7127,14151 7155,14159 7183,14175 7212,14191 7232,14211 7248,14240 L 7248,14240 Z"/>
        <path fill="none" stroke="rgb(0,0,0)" stroke-width="71" d="M 7248,14240 C 7264,14268 7272,14296 7272,14328 7272,14361 7264,14388 7248,14417 7232,14445 7212,14465 7183,14482 7155,14498 7127,14505 7095,14505 7062,14505 7035,14498 7006,14482 6978,14465 6958,14445 6942,14417 6925,14388 6918,14361 6918,14328 6918,14296 6925,14268 6942,14240 6958,14211 6978,14191 7006,14175 7035,14159 7062,14151 7095,14151 7127,14151 7155,14159 7183,14175 7212,14191 7232,14211 7248,14240 L 7248,14240 Z"/>
       </g>
      </g>
      <g class="com.sun.star.drawing.EllipseShape">
       <g id="id15">
        <path fill="rgb(255,255,255)" stroke="none" d="M 1138,10890 C 1122,10918 1102,10938 1073,10955 1045,10971 1017,10978 985,10978 952,10978 925,10971 896,10955 868,10938 848,10918 832,10890 815,10861 808,10834 808,10801 808,10769 815,10741 831,10713 848,10684 868,10664 896,10648 925,10632 952,10624 985,10624 1017,10624 1045,10632 1073,10648 1102,10664 1122,10684 1138,10713 1154,10741 1162,10769 1162,10801 1162,10834 1154,10861 1138,10890 L 1138,10890 Z"/>
        <path fill="none" stroke="rgb(0,0,0)" stroke-width="71" d="M 1138,10890 C 1122,10918 1102,10938 1073,10955 1045,10971 1017,10978 985,10978 952,10978 925,10971 896,10955 868,10938 848,10918 832,10890 815,10861 808,10834 808,10801 808,10769 815,10741 831,10713 848,10684 868,10664 896,10648 925,10632 952,10624 985,10624 1017,10624 1045,10632 1073,10648 1102,10664 1122,10684 1138,10713 1154,10741 1162,10769 1162,10801 1162,10834 1154,10861 1138,10890 L 1138,10890 Z"/>
       </g>
      </g>
      <g class="com.sun.star.drawing.EllipseShape">
       <g id="id16">
        <path fill="rgb(255,255,255)" stroke="none" d="M 985,3921 C 952,3921 925,3914 897,3897 868,3881 848,3861 832,3833 815,3804 808,3777 808,3744 808,3711 815,3684 832,3656 848,3627 868,3607 897,3591 925,3574 952,3567 985,3567 1018,3567 1045,3574 1074,3591 1102,3607 1122,3627 1138,3656 1155,3684 1162,3711 1162,3744 1162,3777 1155,3804 1138,3833 1122,3861 1102,3881 1074,3897 1045,3914 1018,3921 985,3921 L 985,3921 Z"/>
        <path fill="none" stroke="rgb(0,0,0)" stroke-width="71" d="M 985,3921 C 952,3921 925,3914 897,3897 868,3881 848,3861 832,3833 815,3804 808,3777 808,3744 808,3711 815,3684 832,3656 848,3627 868,3607 897,3591 925,3574 952,3567 985,3567 1018,3567 1045,3574 1074,3591 1102,3607 1122,3627 1138,3656 1155,3684 1162,3711 1162,3744 1162,3777 1155,3804 1138,3833 1122,3861 1102,3881 1074,3897 1045,3914 1018,3921 985,3921 L 985,3921 Z"/>
       </g>
      </g>
     </g>
    </g>
   </g>
  </g>
 </g>
</svg>