<?xml version="1.0" encoding="UTF-8" standalone="no"?>
<svg
   xmlns:dc="http://purl.org/dc/elements/1.1/"
   xmlns:cc="http://creativecommons.org/ns#"
   xmlns:rdf="http://www.w3.org/1999/02/22-rdf-syntax-ns#"
   xmlns:svg="http://www.w3.org/2000/svg"
   xmlns="http://www.w3.org/2000/svg"
   version="1.1"
   id="svg46587"
   viewBox="0 0 744.09448819 1052.3622047"
   height="297mm"
   width="210mm">
  <defs
     id="defs46589" />
  <metadata
     id="metadata46592">
    <rdf:RDF>
      <cc:Work
         rdf:about="">
        <dc:format>image/svg+xml</dc:format>
        <dc:type
           rdf:resource="http://purl.org/dc/dcmitype/StillImage" />
        <dc:title></dc:title>
      </cc:Work>
    </rdf:RDF>
  </metadata>
  <g
     id="layer1">
    <path
       id="path46576"
       d="m -752.99113,416.09253 c -24.3874,-42.61954 -33.08815,-93.63633 -37.02691,-142.5818 -2.73456,-33.98126 0.25335,-69.02674 9.54621,-101.82684 8.95086,-31.59283 22.2184,-63.42032 43.61734,-88.32639 14.33556,-16.685055 33.5547,-29.926556 54.09549,-37.799009 44.02755,-16.874001 93.26232,-16.047018 140.39784,-17.228502 59.71699,-1.496853 119.11285,9.339308 178.74307,12.888261 37.41012,2.226501 74.93967,2.392524 112.30516,5.272245 26.82675,2.067516 53.9334,3.049551 80.25804,8.61426 43.02351,9.094661 100.141741,4.386077 125.645681,40.209002 29.13255,40.919713 3.2202,100.880123 -3.56814,150.650093 -7.16535,52.53448 -20.07289,104.67432 -38.95714,154.21825 -9.80055,25.71237 -14.922091,58.49078 -38.185111,73.18803 -12.114,7.65349 -28.71135,0.0563 -42.95817,1.59105 -20.89323,2.25066 -43.99254,0.39047 -62.05068,11.13731 -11.67282,6.94677 -18.66186,20.059 -25.45677,31.82088 -6.55227,11.34201 -9.72945,24.32589 -14.31936,36.59403 -2.76264,7.38431 -4.52007,15.1781 -7.95519,22.27461 -4.35988,9.00687 -5.90986,25.8001 -15.91057,25.45672 -13.51584,-0.46407 -11.88603,-24.35464 -19.09251,-35.7985 -5.96331,-9.46966 -14.49873,-17.24008 -19.88802,-27.04775 -4.93272,-8.97675 -2.92419,-22.51857 -11.13741,-28.6388 -7.89318,-5.88174 -19.59867,-1.98848 -29.43423,-2.38657 -13.77774,-0.55765 -28.28574,-4.36049 -41.36724,0 -15.0939,5.03132 -28.41696,16.07986 -38.18502,28.6388 -8.46567,10.88442 -2.17989,36.91632 -15.91047,38.18507 -16.40502,1.51587 -20.23047,-26.36885 -27.0477,-41.36716 -7.29513,-16.04943 1.00764,-42.20236 -14.31946,-50.91342 -24.83001,-14.112 -59.33529,5.89878 -82.7343,22.27462 -19.64916,13.75153 -17.45028,60.65242 -41.36706,58.86864 -14.19138,-1.05841 -11.57787,-26.10027 -19.0926,-38.18505 -10.1943,-16.39384 -22.31433,-31.59108 -35.00307,-46.1403 -19.71891,-22.61029 -48.74157,-37.60241 -63.6417,-63.64178 z"
       style="fill:none;fill-rule:evenodd;stroke:#000000;stroke-width:0.99999994px;stroke-linecap:butt;stroke-linejoin:miter;stroke-opacity:1" />
  </g>
</svg>
