<?xml version="1.0" encoding="UTF-8" standalone="no"?>
<!-- Created with Inkscape (http://www.inkscape.org/) -->

<svg
   xmlns:dc="http://purl.org/dc/elements/1.1/"
   xmlns:cc="http://creativecommons.org/ns#"
   xmlns:rdf="http://www.w3.org/1999/02/22-rdf-syntax-ns#"
   xmlns:svg="http://www.w3.org/2000/svg"
   xmlns="http://www.w3.org/2000/svg"
   xmlns:sodipodi="http://sodipodi.sourceforge.net/DTD/sodipodi-0.dtd"
   xmlns:inkscape="http://www.inkscape.org/namespaces/inkscape"
   width="210mm"
   height="297mm"
   viewBox="0 0 744.09448819 1052.3622047"
   id="svg55097"
   version="1.1"
   inkscape:version="0.91 r13725"
   sodipodi:docname="cat-outline-drip2.svg">
  <defs
     id="defs55099" />
  <sodipodi:namedview
     id="base"
     pagecolor="#ffffff"
     bordercolor="#666666"
     borderopacity="1.0"
     inkscape:pageopacity="0.0"
     inkscape:pageshadow="2"
     inkscape:zoom="0.35"
     inkscape:cx="-322.14286"
     inkscape:cy="520"
     inkscape:document-units="px"
     inkscape:current-layer="layer1"
     showgrid="false"
     inkscape:window-width="1920"
     inkscape:window-height="1055"
     inkscape:window-x="1440"
     inkscape:window-y="0"
     inkscape:window-maximized="1" />
  <metadata
     id="metadata55102">
    <rdf:RDF>
      <cc:Work
         rdf:about="">
        <dc:format>image/svg+xml</dc:format>
        <dc:type
           rdf:resource="http://purl.org/dc/dcmitype/StillImage" />
        <dc:title></dc:title>
      </cc:Work>
    </rdf:RDF>
  </metadata>
  <g
     inkscape:label="Layer 1"
     inkscape:groupmode="layer"
     id="layer1">
    <path
       inkscape:connector-curvature="0"
       id="path46576"
       d="m 45.124971,475.21852 c -20.3557,-41.28716 -19.2424,-90.31578 -22.7075,-136.21762 -2.7548,-36.49403 -7.3224,-74.28622 1.591,-109.78206 5.4561,-21.72766 15.6439,-43.27273 30.889,-59.68759 15.6774,-16.88034 36.9709,-29.05138 58.868599,-36.20797 49.17944,-16.07279 103.14076,-8.35446 154.71725,-12.45536 60.10668,-4.77915 120.04518,-13.2115 180.33411,-14.1595 37.47165,-0.58922 74.93968,2.39252 112.30516,5.27224 26.82678,2.06752 54.57944,0.57931 80.25804,8.61427 28.81413,9.01607 60.61202,19.84147 79.5054,43.39109 32.01692,39.90746 46.50738,96.45621 42.57214,147.468 -1.88602,24.44821 -20.3508,44.62402 -31.00191,66.7108 -9.2721,19.22717 -22.6797,36.78015 -28.63885,57.27758 -5.80448,19.96544 0.20224,42.32276 -6.36415,62.05075 -4.88314,14.67083 -11.98562,29.87943 -23.86561,39.77611 -10.44456,8.70089 -25.44708,9.57213 -38.18513,14.31939 -14.30858,5.33257 -32.22392,5.05006 -42.95816,15.91045 -5.5423,5.60743 -4.52007,15.17811 -7.95519,22.27461 -4.35985,9.00689 -5.90807,25.74356 -15.91057,25.45672 -22.06418,-0.63274 -19.95327,-39.46161 -31.82086,-58.07312 -6.01672,-9.43579 -9.47779,-22.94143 -19.88802,-27.04775 -32.12494,-12.67171 -67.34022,17.28994 -101.82695,19.09253 -9.83019,0.51382 -19.59867,-1.98848 -29.43423,-2.38657 -13.7778,-0.55764 -27.98076,-3.30768 -41.36724,0 -11.05458,2.73149 -21.19882,8.97458 -30.2298,15.91044 -7.44144,5.7151 -9.71161,20.49605 -19.09256,20.68359 -8.99849,0.17988 -13.47763,-12.05842 -19.09247,-19.09254 -10.55639,-13.22478 -11.17351,-37.09828 -27.04782,-42.9582 -23.44741,-8.65549 -51.40028,7.55078 -71.59699,22.27462 -19.37995,14.12841 -17.45027,60.65239 -41.36706,58.86864 -14.19133,-1.05841 -12.00483,-25.84498 -19.09263,-38.18505 -8.2055,-14.28615 -16.881699,-28.40274 -27.047799,-41.36716 -13.4295,-17.12616 -34.9252,-28.21121 -44.5492,-47.73134 z"
       style="fill:none;fill-rule:evenodd;stroke:#000000;stroke-width:0.99999994px;stroke-linecap:butt;stroke-linejoin:miter;stroke-opacity:1"
       sodipodi:nodetypes="aaaaaaaaaaaaaaaaaaaaaaaaaaaaaaaaa" />
  </g>
</svg>
