<?xml version="1.0" encoding="UTF-8" standalone="no"?>
<svg
   xmlns:dc="http://purl.org/dc/elements/1.1/"
   xmlns:cc="http://creativecommons.org/ns#"
   xmlns:rdf="http://www.w3.org/1999/02/22-rdf-syntax-ns#"
   xmlns:svg="http://www.w3.org/2000/svg"
   xmlns="http://www.w3.org/2000/svg"
   version="1.1"
   id="svg55097"
   viewBox="0 0 744.09448819 1052.3622047"
   height="297mm"
   width="210mm">
  <defs
     id="defs55099" />
  <metadata
     id="metadata55102">
    <rdf:RDF>
      <cc:Work
         rdf:about="">
        <dc:format>image/svg+xml</dc:format>
        <dc:type
           rdf:resource="http://purl.org/dc/dcmitype/StillImage" />
        <dc:title></dc:title>
      </cc:Work>
    </rdf:RDF>
  </metadata>
  <g
     id="layer1">
    <path
       style="fill:none;fill-rule:evenodd;stroke:#000000;stroke-width:1.22874045px;stroke-linecap:butt;stroke-linejoin:miter;stroke-opacity:1"
       d="M 51.26846,443.07695 C 26.256588,392.34574 27.624545,332.10229 23.366836,275.70084 19.981902,230.85915 14.369507,184.42236 25.321762,140.80719 32.025894,114.10952 44.544055,87.636222 63.276327,67.466625 82.539782,46.725069 108.70396,31.770019 135.61056,22.976428 196.03932,3.2271412 262.34378,12.710965 325.7179,7.6720228 399.57342,1.7996869 473.22226,-8.5614803 547.30173,-9.7263305 c 46.04293,-0.7239945 92.08141,2.9397877 137.99388,6.4782185 32.96316,2.54044632 67.06397,0.7118161 98.6163,10.5847003 35.4051,11.0784107 74.47645,24.3800177 97.69149,53.3163887 39.34053,49.035903 57.14551,118.519643 52.31011,181.199893 -2.31744,30.04051 -25.00584,54.83134 -38.09331,81.97026 -11.393,23.6252 -27.86743,45.19326 -35.18968,70.37929 -7.1322,24.53235 0.2485,52.00368 -7.8199,76.24426 -6.00009,18.02665 -14.7272,36.71407 -29.32462,48.87453 -12.83366,10.69113 -31.26787,11.76166 -46.91962,17.59481 -17.58154,6.55234 -39.59484,6.20521 -52.78445,19.54982 -6.81003,6.89007 -5.55398,18.64994 -9.77486,27.36971 -5.35712,11.06712 -7.25947,31.63215 -19.54995,31.2797 -27.11115,-0.77748 -24.51738,-48.48808 -39.09959,-71.3568 -7.39298,-11.59412 -11.64574,-28.18906 -24.43721,-33.23466 -39.47321,-15.57024 -82.74364,21.24485 -125.1189,23.45976 -12.07875,0.63135 -24.08167,-2.44332 -36.16702,-2.93247 -16.92934,-0.6852 -34.3811,-4.06428 -50.8296,0 -13.58321,3.3563 -26.04785,11.02743 -37.14457,19.54981 -9.14361,7.02237 -11.93305,25.18432 -23.45981,25.41474 -11.05682,0.22104 -16.56051,-14.81665 -23.45969,-23.45976 -12.97106,-16.24983 -13.72935,-45.58417 -33.23476,-52.78448 -28.81077,-10.63535 -63.1576,9.27794 -87.97411,27.36973 -23.81293,17.36015 -21.44185,74.52603 -50.82938,72.33428 -17.43748,-1.30052 -14.75083,-31.75677 -23.45989,-46.91952 -10.08243,-17.55398 -20.74323,-34.8996 -33.23473,-50.82951 -16.501362,-21.0436 -42.914001,-34.66426 -54.7394,-58.64942 z"
       id="path46576" />
  </g>
</svg>
