<?xml version="1.0" encoding="UTF-8" standalone="no"?>
<svg
   xmlns:dc="http://purl.org/dc/elements/1.1/"
   xmlns:cc="http://creativecommons.org/ns#"
   xmlns:rdf="http://www.w3.org/1999/02/22-rdf-syntax-ns#"
   xmlns:svg="http://www.w3.org/2000/svg"
   xmlns="http://www.w3.org/2000/svg"
   version="1.1"
   id="svg26666"
   viewBox="0 0 744.09448819 1052.3622047"
   height="297mm"
   width="210mm">
  <defs
     id="defs26668" />
  <metadata
     id="metadata26671">
    <rdf:RDF>
      <cc:Work
         rdf:about="">
        <dc:format>image/svg+xml</dc:format>
        <dc:type
           rdf:resource="http://purl.org/dc/dcmitype/StillImage" />
        <dc:title></dc:title>
      </cc:Work>
    </rdf:RDF>
  </metadata>
  <g
     id="layer1">
    <path
       id="path26655"
       d="m -28.343621,600.35739 c -9.27721,-41.5981 -29.02771,-82.25189 -27.59102,-124.84771 1.87469,-55.58198 11.4634,-117.25036 46.8977599,-160.11384 C 23.397689,276.16109 77.517656,258.29345 126.8333,245.67067 c 78.28484,-20.03771 161.54251,-5.05289 242.3372,-6.55111 58.42486,-1.0834 116.91138,0.66429 175.29586,-1.76289 39.11822,-1.62624 78.13401,-5.22634 117.14286,-8.57143 58.16214,-4.98753 116.25978,-23.52252 174.28572,-17.14285 63.76553,7.01071 137.06572,15.07412 182.85716,60 59.7709,58.64108 84.8932,153.43388 82.8572,237.14285 -1.1561,47.53093 -24.4481,94.59876 -53.5381,132.20594 -18.259,23.60497 -48.26154,35.13045 -71.87424,53.37942 -7.1211,5.50354 -13.5921,11.86897 -21.0431,16.91696 -7.5605,5.12224 -16.75687,7.72501 -23.85964,13.46525 -11.25846,9.09874 -19.52237,21.39091 -28.8037,32.49933 -10.53119,12.60434 -22.38472,24.42542 -30.47775,38.71801 -15.28908,27.00109 -2.07975,86.45484 -33.10417,87.00258 -30.75144,0.54293 -12.93639,-64.49387 -35.83657,-85.02501 -10.15683,-9.10609 -27.93534,-4.02821 -39.21591,-11.69835 -15.9876,-10.87064 -18.32604,-37.43291 -35.85422,-45.58995 -35.40054,-16.47426 -82.58666,-14.41536 -117.07361,3.89448 -15.05199,7.99142 -17.55469,29.76782 -30.03336,41.3742 -5.95065,5.5347 -12.71474,14.28911 -20.71428,12.85715 -16.03337,-2.87007 -16.62268,-29.27877 -30,-38.57144 -28.69647,-19.93425 -67.96805,-45.38621 -100,-31.42857 -20.30764,8.84887 -13.29385,43.95947 -28.57143,60 -9.44571,9.91741 -26.43933,9.83478 -36.19217,19.45032 -10.23616,10.09206 -6.58506,37.18527 -20.95069,37.69254 -26.1352,0.92286 -30.95436,-42.42859 -42.85714,-65.71429 -6.03759,-11.81148 -6.42561,-26.45723 -14.28571,-37.14285 -10.07594,-13.69801 -23.27237,-28.60415 -40,-31.66136 -17.72709,-3.23988 -34.53831,10.35322 -51.51778,16.39013 -11.93787,4.24441 -25.23622,6.31817 -35.36586,13.92857 -8.94187,6.71802 -14.20293,17.31897 -20.50072,26.56163 -9.08433,13.33218 -8.70642,41.42925 -24.839,41.53881 -8.29593,0.0563 -7.36356,-15.15588 -13.062,-21.18527 -8.520064,-9.01489 -20.083744,-14.58647 -30.523554,-21.285 -8.91653,-5.72114 -18.39057,-10.53196 -27.38976,-16.12218 -12.649497,-7.85775 -28.303057,-12.6628 -37.3756471,-24.47136 -13.48749,-17.55484 -14.92674,-41.72582 -20.8368299,-63.06019 -5.77822,-20.85833 -9.5447,-42.22245 -14.25598,-63.34735 z"
       style="fill:none;fill-rule:evenodd;stroke:#000000;stroke-width:1px;stroke-linecap:butt;stroke-linejoin:miter;stroke-opacity:1" />
  </g>
</svg>
