<?xml version="1.0" encoding="UTF-8" standalone="no"?>
<svg
   xmlns:dc="http://purl.org/dc/elements/1.1/"
   xmlns:cc="http://creativecommons.org/ns#"
   xmlns:rdf="http://www.w3.org/1999/02/22-rdf-syntax-ns#"
   xmlns:svg="http://www.w3.org/2000/svg"
   xmlns="http://www.w3.org/2000/svg"
   width="210mm"
   height="297mm"
   viewBox="0 0 744.09448819 1052.3622047"
   id="svg26666"
   version="1.1">
  <defs
     id="defs26668" />
  <metadata
     id="metadata26671">
    <rdf:RDF>
      <cc:Work
         rdf:about="">
        <dc:format>image/svg+xml</dc:format>
        <dc:type
           rdf:resource="http://purl.org/dc/dcmitype/StillImage" />
        <dc:title></dc:title>
      </cc:Work>
    </rdf:RDF>
  </metadata>
  <path
     style="fill:none;fill-rule:evenodd;stroke:#000000;stroke-width:0.84775507px;stroke-linecap:butt;stroke-linejoin:miter;stroke-opacity:1"
     d="m -58.892561,590.79245 c -9.56669,-44.8585 -27.74271,-89.0258 -27.18549,-134.8898 0.51698,-42.5514 -1.31934,-93.8995 28.25507,-124.49757 33.33253,-34.4863 91.49004,-31.25611 139.15348,-36.60003 61.300481,-6.87288 123.267241,5.53531 184.947421,6.2704 49.53498,0.59035 99.07342,-0.86909 148.60796,-1.4945 38.35936,-0.48431 76.72376,-0.78078 115.07397,-1.74854 47.9513,-1.21005 95.8675,-6.58569 143.8102,-5.07363 65.6206,2.06959 143.1491,-19.60457 196.0084,19.33427 32.1638,23.69338 37.2102,71.5863 46.5944,110.4169 8.2574,34.1683 9.3615,70.0385 7.8942,105.1597 -1.6093,38.5198 -7.1334,77.2951 -18.2481,114.2116 -6.3828,21.1995 -6.6023,53.0849 -27.4738,60.47 -24.9195,8.8174 -44.6394,-32.5732 -70.9103,-35.5008 -25.8769,-2.8837 -52.5654,7.0456 -75.8315,18.7342 -10.5779,5.3142 -20.5097,12.96 -27.4142,22.5758 -15.3427,21.3674 -1.7631,73.2925 -28.0642,73.7568 -26.0697,0.4603 -10.9669,-54.675 -30.3807,-72.0803 -8.6105,-7.7198 -23.6823,-3.415 -33.2454,-9.9174 -13.55361,-9.2156 -14.37207,-35.2034 -30.39564,-38.6491 -36.47887,-7.8443 -70.99766,27.392 -99.24975,51.7653 -10.93909,9.4373 -14.88209,25.2358 -25.46094,35.0752 -5.04469,4.6921 -10.77899,12.1137 -17.56063,10.8997 -13.59237,-2.4331 -15.58386,-23.0206 -25.43265,-32.6991 -28.79697,-28.2991 -57.68743,-82.3358 -96.89145,-72.6843 -18.23486,4.4892 -11.26993,37.2669 -24.22158,50.8653 -8.00764,8.4075 -22.41407,8.3375 -30.68209,16.4891 -8.67777,8.5556 -5.58252,31.524 -17.76106,31.9541 -22.15625,0.7823 -22.29738,-38.5478 -36.33236,-55.7097 -6.38811,-7.8113 -13.41931,-15.2915 -21.57009,-21.2404 -10.07137,-7.3507 -21.15676,-20.8889 -33.12193,-17.3818 -14.80496,4.3396 -11.23153,30.1212 -22.88748,40.2285 -8.11499,7.0368 -21.39414,5.3563 -29.98159,11.808 -7.580521,5.6953 -12.040611,14.6823 -17.379591,22.5178 -7.70129,11.3024 -7.38092,35.1218 -21.05739,35.2147 -7.03293,0.048 -6.2425,-12.8485 -11.07338,-17.9599 -7.22293,-7.6424 -17.0261,-12.3658 -25.8765,-18.0445 -7.55903,-4.8501 -15.59069,-8.9285 -23.2198,-13.6676 -10.72368,-6.6615 -23.99406,-10.735 -31.6854,-20.7458 -11.43408,-14.8822 -12.65422,-35.3732 -17.66453,-53.4596 -4.89851,-17.6827 -8.25853,-35.7578 -12.08558,-53.703 z"
     id="path26655-4" />
</svg>
